<?xml version="1.0" encoding="UTF-8"?>
<svg version="1.1" xmlns="http://www.w3.org/2000/svg" width="240" height="240">
<path d="M0 0 C79.2 0 158.4 0 240 0 C240 79.2 240 158.4 240 240 C160.8 240 81.6 240 0 240 C0 160.8 0 81.6 0 0 Z " fill="#747397" transform="translate(0,0)"/>
<path d="M0 0 C1.86113056 3.14065783 2.27966763 5.36432086 2 9 C1.67 9.99 1.34 10.98 1 12 C0.96079185 13.99961564 0.95556653 16.00049364 1 18 C4.63 18 8.26 18 12 18 C12 19.32 12 20.64 12 22 C12.9590625 22.2165625 12.9590625 22.2165625 13.9375 22.4375 C16 23 16 23 17 24 C17.515625 22.80375 18.03125 21.6075 18.5625 20.375 C21.45950756 14.71130011 24.81053528 11.27308676 30.76953125 8.89453125 C39.91457464 6.20619372 46.65376515 7.04105262 55 11.5 C57.00222147 12.66285007 59.00195181 13.82999379 61 15 C62.2710625 15.70093871 63.54467169 16.39727211 64.8203125 17.08984375 C75.06780739 22.66661453 85.08796451 28.58656737 95.05712891 34.64624023 C100.70934239 38.07205857 106.40678767 41.3505053 112.22485352 44.48583984 C117.20688536 47.20410865 122.09992908 50.07492644 127 52.9375 C128.00289062 53.51951172 129.00578125 54.10152344 130.0390625 54.70117188 C151.32683634 67.11903995 151.32683634 67.11903995 155.25 75.75 C157.01402868 83.39412426 156.52162408 90.91733068 153 98 C150.12716554 102.201275 147.048696 104.4847308 142.6875 107.0625 C142.11225586 107.40756592 141.53701172 107.75263184 140.94433594 108.1081543 C137.9171743 109.91530655 134.85093879 111.63631687 131.75 113.3125 C128.72083677 114.76550289 128.72083677 114.76550289 128 118 C126.03550863 118.52386436 124.06696838 119.03884484 122.078125 119.4609375 C119.38101977 120.16056254 117.28380197 121.42988615 115 123 C115.99 122.67 116.98 122.34 118 122 C120.22818441 121.93062938 122.45834524 121.91542916 124.6875 121.9375 C125.86699219 121.94652344 127.04648438 121.95554687 128.26171875 121.96484375 C129.61716797 121.98224609 129.61716797 121.98224609 131 122 C132.00484204 123.95585325 133.00373805 125.91476237 134 127.875 C134.556875 128.96554688 135.11375 130.05609375 135.6875 131.1796875 C137 134 137 134 137 136 C127.66466709 136.53310911 120.29583934 136.54693702 111.74609375 132.19140625 C104.72960892 129.14726987 97.21272047 130.01621536 89.75 130.375 C88.66203125 130.41882813 87.5740625 130.46265625 86.453125 130.5078125 C80.63274679 130.70250051 80.63274679 130.70250051 75 132 C73.15197031 132.01578603 71.30303657 131.96681127 69.45703125 131.87890625 C68.38388672 131.83056641 67.31074219 131.78222656 66.20507812 131.73242188 C65.08552734 131.67634766 63.96597656 131.62027344 62.8125 131.5625 C61.68134766 131.51029297 60.55019531 131.45808594 59.38476562 131.40429688 C56.5895672 131.27456193 53.7947206 131.13959359 51 131 C50.67 131.66 50.34 132.32 50 133 C49.67 132.34 49.34 131.68 49 131 C44.71 131 40.42 131 36 131 C36 132.65 36 134.3 36 136 C32.20732808 136.9360342 29.06325435 136.98276252 25.1875 136.5625 C24.21167969 136.46066406 23.23585937 136.35882813 22.23046875 136.25390625 C21.49441406 136.17011719 20.75835937 136.08632812 20 136 C20.33 134.35 20.66 132.7 21 131 C19.35 130.67 17.7 130.34 16 130 C15.67 118.12 15.34 106.24 15 94 C10.31204487 106.20588055 10.31204487 106.20588055 8.90234375 118.51953125 C8.90556641 119.54111328 8.90878906 120.56269531 8.91210938 121.61523438 C8.92048828 122.67033203 8.92886719 123.72542969 8.9375 124.8125 C8.94201172 125.88693359 8.94652344 126.96136719 8.95117188 128.06835938 C8.96292271 130.71229683 8.97935213 133.35611952 9 136 C7.72125 136.04898438 6.4425 136.09796875 5.125 136.1484375 C3.41664778 136.22352991 1.70831541 136.29907487 0 136.375 C-1.25876953 136.42140625 -1.25876953 136.42140625 -2.54296875 136.46875 C-7.95552978 136.72049702 -12.78645864 137.51558892 -18 139 C-14.89179595 127.18882461 -7.67960778 117.07943224 -0.5625 107.3125 C-0.15708984 106.7561084 0.24832031 106.1997168 0.66601562 105.62646484 C1.08431641 105.06523926 1.50261719 104.50401367 1.93359375 103.92578125 C2.38234863 103.30799805 2.83110352 102.69021484 3.29345703 102.05371094 C5 100 5 100 7.53076172 97.78222656 C14.49218249 91.11743257 15.96835566 85.48095886 16.328125 75.8828125 C16.37866081 72.46322259 16.36617882 69.05416159 16.30371094 65.63476562 C16.24975478 62.10897587 16.30348106 58.59572879 16.3671875 55.0703125 C16.36058442 52.82028451 16.34778246 50.57026431 16.328125 48.3203125 C16.35848846 46.74988693 16.35848846 46.74988693 16.38946533 45.1477356 C16.29224434 42.11937941 16.10340808 39.82566068 15 37 C11.96409983 34.27096214 8.70309215 32.65922635 5 31 C3.66132053 30.25958454 2.32674826 29.51158837 1 28.75 C-3.47356967 26.56312315 -8.12210159 25.80369941 -13 25 C-14.25876953 24.66548828 -14.25876953 24.66548828 -15.54296875 24.32421875 C-18.50666712 23.93314249 -19.59202595 24.4901488 -22.125 26 C-24.1328125 27.1875 -24.1328125 27.1875 -26 28 C-26.99 27.67 -27.98 27.34 -29 27 C-23.76535083 14.94520695 -16.57252185 7.28169199 -5 1 C-2 0 -2 0 0 0 Z " fill="#747397" transform="translate(34,5)"/>
<path d="M0 0 C3.78048304 -0.49221479 7.23657437 -0.68609368 11 0 C13.93489468 2.28380883 15.97208812 4.89930197 18 8 C18 5.36 18 2.72 18 0 C76.08 0 134.16 0 194 0 C194 47.85 194 95.7 194 145 C193.01 144.34 192.02 143.68 191 143 C191 142.34 191 141.68 191 141 C190.01 141.061875 189.02 141.12375 188 141.1875 C184.83159469 141.2048893 183.47959281 140.78687058 180.37475586 139.51530457 C175.56365839 137.64092069 171.12108946 137.55943974 166.00390625 137.56762695 C165.03713455 137.5574353 164.07036285 137.54724365 163.07429504 137.53674316 C159.90363679 137.50673733 156.73328128 137.49736612 153.5625 137.48828125 C151.35431931 137.47142539 149.14614817 137.45327393 146.93798828 137.43388367 C141.144704 137.3864763 135.35145842 137.35660692 129.55804443 137.33044434 C123.63887898 137.30059212 117.71984674 137.25407778 111.80078125 137.20898438 C100.20059065 137.12305658 88.60037255 137.05566443 77 137 C77.66 136.67 78.32 136.34 79 136 C79 135.34 79 134.68 79 134 C77.906875 134.061875 76.81375 134.12375 75.6875 134.1875 C72 134 72 134 70.0625 132.5 C69.711875 132.005 69.36125 131.51 69 131 C78.00277384 126.49861308 95.41781108 127.88088001 104.875 130.8125 C107.33228499 131.76050549 109.55705174 132.73058775 111.8046875 134.09765625 C115.17788261 135.48414748 118.65084174 135.47238552 122.25 135.625 C123.36761719 135.68300781 123.36761719 135.68300781 124.5078125 135.7421875 C126.3381524 135.83605108 128.16904143 135.91909718 130 136 C129.566875 135.15695313 129.13375 134.31390625 128.6875 133.4453125 C128.130625 132.34960938 127.57375 131.25390625 127 130.125 C126.443125 129.03445312 125.88625 127.94390625 125.3125 126.8203125 C124 124 124 124 124 122 C121.93722893 122.14194764 119.87478969 122.28872216 117.8125 122.4375 C116.66394531 122.51871094 115.51539063 122.59992188 114.33203125 122.68359375 C111.48401829 122.95403812 108.78789518 123.37521747 106 124 C107.73362759 120.53274483 111.49006949 119.34259637 115 118 C118.5 117.75 118.5 117.75 121 118 C121.08991211 117.38954834 121.17982422 116.77909668 121.27246094 116.15014648 C122.19996124 113.40904073 123.12952399 112.95958394 125.640625 111.59765625 C126.75244141 110.97407227 126.75244141 110.97407227 127.88671875 110.33789062 C128.66660156 109.91701172 129.44648438 109.49613281 130.25 109.0625 C138.33189839 104.65357229 144.79959231 100.4475337 147.55859375 91.109375 C149.23435879 83.10129429 147.63269763 77.13409293 144 70 C143.67 69.01 143.34 68.02 143 67 C141.17874052 65.90342189 141.17874052 65.90342189 139 65 C137.53223938 64.18697158 136.07037272 63.36324813 134.61328125 62.53125 C133.34327271 61.80639404 133.34327271 61.80639404 132.04760742 61.06689453 C130.69372925 60.29128174 130.69372925 60.29128174 129.3125 59.5 C128.37059814 58.96101074 127.42869629 58.42202148 126.45825195 57.86669922 C120.17059834 54.26175655 113.9075722 50.61777498 107.66723633 46.93164062 C100.42640762 42.65454316 93.15933669 38.42279402 85.89257812 34.18994141 C80.52782967 31.06335779 75.17062247 27.92489504 69.82592773 24.76416016 C62.95562584 20.7026893 56.05361976 16.73771546 49 13 C47.92878906 12.39865234 47.92878906 12.39865234 46.8359375 11.78515625 C38.80530882 7.42877274 32.45647103 7.55235911 23.76953125 10 C16.36449925 12.67374921 13.35221452 18.1917413 10 25 C7.71505696 22.71505696 7.14044328 21.05318077 6.0546875 18.02734375 C5.70019531 17.04572266 5.34570312 16.06410156 4.98046875 15.05273438 C4.61566406 14.02470703 4.25085937 12.99667969 3.875 11.9375 C3.50246094 10.90560547 3.12992188 9.87371094 2.74609375 8.81054688 C0 1.16071429 0 1.16071429 0 0 Z " fill="#B73047" transform="translate(41,5)"/>
<path d="M0 0 C0 29.04 0 58.08 0 88 C-1.485 87.01 -1.485 87.01 -3 86 C-3 85.34 -3 84.68 -3 84 C-3.99 84.061875 -4.98 84.12375 -6 84.1875 C-9.16840531 84.2048893 -10.52040719 83.78687058 -13.62524414 82.51530457 C-18.43634161 80.64092069 -22.87891054 80.55943974 -27.99609375 80.56762695 C-28.96286545 80.5574353 -29.92963715 80.54724365 -30.92570496 80.53674316 C-34.09636321 80.50673733 -37.26671872 80.49736612 -40.4375 80.48828125 C-42.64568069 80.47142539 -44.85385183 80.45327393 -47.06201172 80.43388367 C-52.855296 80.3864763 -58.64854158 80.35660692 -64.44195557 80.33044434 C-70.36112102 80.30059212 -76.28015326 80.25407778 -82.19921875 80.20898438 C-93.79940935 80.12305658 -105.39962745 80.05566443 -117 80 C-116.01 79.505 -116.01 79.505 -115 79 C-115 78.34 -115 77.68 -115 77 C-116.093125 77.061875 -117.18625 77.12375 -118.3125 77.1875 C-122 77 -122 77 -123.9375 75.5 C-124.288125 75.005 -124.63875 74.51 -125 74 C-115.99722616 69.49861308 -98.58218892 70.88088001 -89.125 73.8125 C-86.66771501 74.76050549 -84.44294826 75.73058775 -82.1953125 77.09765625 C-78.82211739 78.48414748 -75.34915826 78.47238552 -71.75 78.625 C-71.00492188 78.66367188 -70.25984375 78.70234375 -69.4921875 78.7421875 C-67.6618476 78.83605108 -65.83095857 78.91909718 -64 79 C-64.433125 78.15695313 -64.86625 77.31390625 -65.3125 76.4453125 C-65.869375 75.34960938 -66.42625 74.25390625 -67 73.125 C-67.556875 72.03445312 -68.11375 70.94390625 -68.6875 69.8203125 C-70 67 -70 67 -70 65 C-72.06277107 65.14194764 -74.12521031 65.28872216 -76.1875 65.4375 C-77.33605469 65.51871094 -78.48460937 65.59992188 -79.66796875 65.68359375 C-82.51598171 65.95403812 -85.21210482 66.37521747 -88 67 C-86.26637241 63.53274483 -82.50993051 62.34259637 -79 61 C-75.5 60.75 -75.5 60.75 -73 61 C-72.91008789 60.38954834 -72.82017578 59.77909668 -72.72753906 59.15014648 C-71.80003876 56.40904073 -70.87047601 55.95958394 -68.359375 54.59765625 C-67.61816406 54.18193359 -66.87695312 53.76621094 -66.11328125 53.33789062 C-65.33339844 52.91701172 -64.55351562 52.49613281 -63.75 52.0625 C-56.29851922 47.99748477 -50.17761172 44.32032542 -47 36 C-46.95735363 33.75040419 -46.95928269 31.49963155 -47 29.25 C-46.52895564 25.68352124 -46.17499239 23.07345892 -43.44042969 20.57519531 C-38.90901198 17.58377821 -33.92936072 15.47726857 -28.96044922 13.32421875 C-23.51504278 10.8884704 -18.24639283 8.09216245 -12.9375 5.375 C-10.88711279 4.33521233 -8.83393971 3.30089026 -6.77734375 2.2734375 C-5.90327881 1.83435059 -5.02921387 1.39526367 -4.12866211 0.94287109 C-2 0 -2 0 0 0 Z " fill="#8C1F3E" transform="translate(235,62)"/>
<path d="M0 0 C1.75222471 1.02402743 3.48372532 2.0847419 5.1875 3.1875 C5.88536621 3.61661179 6.58323242 4.04572357 7.30224609 4.48783875 C9.1875 6.1875 9.1875 6.1875 9.74926758 8.39021301 C9.7902356 9.67589424 9.7902356 9.67589424 9.83203125 10.98754883 C9.87046143 11.9631929 9.9088916 12.93883698 9.94848633 13.94404602 C9.96548584 15.00020615 9.98248535 16.05636627 10 17.14453125 C10.02280029 18.23908127 10.04560059 19.33363129 10.0690918 20.46134949 C10.10691857 22.78551772 10.13303865 25.10990114 10.1484375 27.43432617 C10.18697109 30.95172024 10.31080066 34.45944517 10.4375 37.97460938 C10.8061913 57.46138682 10.8061913 57.46138682 3.578125 65.17578125 C1.97490659 66.75901499 0.34145275 68.28785683 -1.3371582 69.79074097 C-4.89290303 73.15709222 -7.40230343 77.48355861 -10.0625 81.5625 C-10.64894287 82.44808594 -11.23538574 83.33367187 -11.83959961 84.24609375 C-15.79055287 90.32028153 -19.28463394 96.50833223 -22.24121094 103.12646484 C-25.27374361 109.78188714 -30.32776164 113.63602245 -35.8125 118.1875 C-35.93797004 112.51741215 -36.02770206 106.84816692 -36.0871582 101.17700195 C-36.11199443 99.25595999 -36.14587581 97.33500931 -36.18969727 95.41430664 C-36.47868704 82.4029669 -35.36006483 71.41524663 -30.8125 59.1875 C-30.4920874 58.3111792 -30.1716748 57.4348584 -29.84155273 56.53198242 C-29.08182635 54.5791911 -28.23306896 52.66162125 -27.375 50.75 C-27.08278564 50.09878174 -26.79057129 49.44756348 -26.48950195 48.77661133 C-23.48539693 42.22050317 -19.80777541 36.18041311 -15.8125 30.1875 C-18.02173793 30.641453 -20.22985553 31.10086006 -22.4375 31.5625 C-23.66726562 31.81773438 -24.89703125 32.07296875 -26.1640625 32.3359375 C-29.47070196 33.10772273 -32.61391713 34.05569375 -35.8125 35.1875 C-37.70060886 13.8494492 -37.70060886 13.8494492 -34.77978516 8.18457031 C-31.78525793 4.74235629 -27.93314494 2.95917826 -23.8125 1.1875 C-22.99265625 0.72859375 -22.1728125 0.2696875 -21.328125 -0.203125 C-13.70499654 -4.25798056 -7.5588458 -4.02536144 0 0 Z " fill="#B82E3C" transform="translate(40.8125,35.8125)"/>
<path d="M0 0 C3.78048304 -0.49221479 7.23657437 -0.68609368 11 0 C13.93489468 2.28380883 15.97208812 4.89930197 18 8 C18 5.36 18 2.72 18 0 C57.93 0 97.86 0 139 0 C137.01892543 3.96214913 135.08528008 5.91471992 132 9 C131.566875 9.763125 131.13375 10.52625 130.6875 11.3125 C128.57640356 14.67461655 125.94602252 17.1355292 123.109375 19.89453125 C121.13833361 21.86192256 119.31099506 23.88578788 117.5 26 C112.22818837 32.10041072 106.95236093 37.82858344 100 42 C92.02008221 37.703427 84.15069209 33.23667954 76.3125 28.6875 C68.808025 24.34594488 61.30363931 20.00561009 53.75 15.75 C52.83214722 15.23119263 52.83214722 15.23119263 51.89575195 14.7019043 C43.08903779 9.75911882 36.93845827 6.93295958 26.875 9.125 C19.4338065 11.22163817 15.97251637 14.02339216 12.125 20.8125 C11.40421228 22.201943 10.69143287 23.59571819 10 25 C7.71505696 22.71505696 7.14044328 21.05318077 6.0546875 18.02734375 C5.70019531 17.04572266 5.34570312 16.06410156 4.98046875 15.05273438 C4.61566406 14.02470703 4.25085937 12.99667969 3.875 11.9375 C3.50246094 10.90560547 3.12992188 9.87371094 2.74609375 8.81054688 C0 1.16071429 0 1.16071429 0 0 Z " fill="#F95C3F" transform="translate(41,5)"/>
<path d="M0 0 C7.26315874 3.38659187 13.12580647 10.51917848 15.96875 17.91796875 C15.91418628 22.78193508 13.06318573 25.48015453 9.84375 28.79296875 C9.09496582 29.58622559 9.09496582 29.58622559 8.33105469 30.39550781 C5.17935977 33.71833548 1.95529036 36.96624209 -1.31567383 40.17163086 C-3.02204303 41.90859669 -4.60774515 43.70560834 -6.19140625 45.5546875 C-10.21882207 50.17915098 -14.42484769 54.60362891 -18.71875 58.98046875 C-19.46447266 59.76357422 -20.21019531 60.54667969 -20.97851562 61.35351562 C-21.70103516 62.08763672 -22.42355469 62.82175781 -23.16796875 63.578125 C-23.81467529 64.24465088 -24.46138184 64.91117676 -25.12768555 65.59790039 C-27.03125 66.91796875 -27.03125 66.91796875 -29.21020508 66.74780273 C-31.64548661 65.63806659 -31.88599701 64.28005304 -33.03125 61.91796875 C-34.34302049 61.20981595 -35.6813653 60.55045077 -37.03125 59.91796875 C-38.62787263 58.99165528 -40.21584017 58.05033108 -41.796875 57.09765625 C-42.68632812 56.56269531 -43.57578125 56.02773437 -44.4921875 55.4765625 C-45.41257813 54.92097656 -46.33296875 54.36539063 -47.28125 53.79296875 C-48.21710938 53.22964844 -49.15296875 52.66632812 -50.1171875 52.0859375 C-52.42267711 50.69793865 -54.72733037 49.30857148 -57.03125 47.91796875 C-55.17100247 43.75992946 -52.43031521 41.64700201 -48.84375 38.98046875 C-43.5767829 34.96180571 -38.50151599 30.79802379 -33.53125 26.41796875 C-28.15239463 21.68929702 -22.65297898 17.1865194 -16.97119141 12.82714844 C-12.39609899 9.29047729 -8.23016983 5.47321364 -4.1171875 1.40234375 C-2.03125 -0.08203125 -2.03125 -0.08203125 0 0 Z " fill="#EF4E3F" transform="translate(217.03125,10.08203125)"/>
<path d="M0 0 C0 12.87 0 25.74 0 39 C-10.52728921 44.26364461 -19.90034517 48.71215735 -31 52 C-32.21558594 52.37382813 -33.43117187 52.74765625 -34.68359375 53.1328125 C-38 54 -38 54 -42 54 C-43.90858766 43.24147312 -45.53132662 32.96107141 -45 22 C-34.37392014 16.33609894 -23.69478014 10.78606105 -12.9375 5.375 C-11.88498047 4.84229492 -10.83246094 4.30958984 -9.74804688 3.76074219 C-8.27754883 3.02452637 -8.27754883 3.02452637 -6.77734375 2.2734375 C-5.90327881 1.83435059 -5.02921387 1.39526367 -4.12866211 0.94287109 C-2 0 -2 0 0 0 Z " fill="#D83A41" transform="translate(235,62)"/>
<path d="M0 0 C0.17395612 5.40755017 0.30049016 10.8134482 0.38452148 16.22314453 C0.41957274 18.06034742 0.46723026 19.89735716 0.52807617 21.73388672 C1.08504561 38.98589795 1.08504561 38.98589795 -3.40234375 43.9375 C-4.59356008 44.96766016 -5.79136149 45.99033706 -7 47 C-7.71792227 48.64523853 -8.39005189 50.31175075 -9 52 C-10.62793479 54.29493586 -12.28249679 56.52498553 -14 58.75 C-18.24628328 64.38430041 -22.06493069 70.1586167 -25.625 76.25 C-26.05039062 76.97670898 -26.47578125 77.70341797 -26.9140625 78.45214844 C-28.53569788 81.27000662 -29.96927533 83.907826 -31 87 C-33.0625 87.6875 -33.0625 87.6875 -35 88 C-34.47020555 81.69856247 -33.37505235 76.15543048 -31.3125 70.1875 C-31.05065918 69.4135791 -30.78881836 68.6396582 -30.51904297 67.84228516 C-28.22454587 61.25397633 -25.37879609 55.11058867 -22 49 C-22.68707031 49.68707031 -23.37414063 50.37414062 -24.08203125 51.08203125 C-27.72135417 54.72135417 -31.36067708 58.36067708 -35 62 C-34.12776832 41.80783662 -27.7788555 20.24349362 -12.85546875 5.9453125 C-6.05217157 -0.15926767 -6.05217157 -0.15926767 0 0 Z " fill="#F2593B" transform="translate(49,53)"/>
<path d="M0 0 C8.91 0 17.82 0 27 0 C27 18.81 27 37.62 27 57 C14 63.5 14 63.5 9.78759766 65.60400391 C4.40174325 68.29430019 -0.98327185 70.98569219 -6.3515625 73.7109375 C-7.09148437 74.08541016 -7.83140625 74.45988281 -8.59375 74.84570312 C-9.91573346 75.51559282 -11.23613814 76.18861036 -12.5546875 76.86523438 C-16.77667386 79 -16.77667386 79 -19 79 C-19.66 76.69 -20.32 74.38 -21 72 C-19.90534424 71.39321411 -19.90534424 71.39321411 -18.78857422 70.77416992 C-15.92532054 68.95248681 -13.77276777 67.01603716 -11.3828125 64.61328125 C-10.10083984 63.3284082 -10.10083984 63.3284082 -8.79296875 62.01757812 C-7.91253906 61.12490234 -7.03210938 60.23222656 -6.125 59.3125 C-5.25230469 58.43916016 -4.37960938 57.56582031 -3.48046875 56.66601562 C1.01188543 52.14326205 5.34847367 47.54759937 9.50292969 42.71313477 C11.4624323 40.47082723 13.55202162 38.38663609 15.6875 36.3125 C20.25189853 31.9851965 20.25189853 31.9851965 24 27 C23.39880147 19.47465287 19.15889502 13.9809291 13.78125 8.90625 C9.44464752 5.4013247 5.23823463 2.89468061 0 1 C0 0.67 0 0.34 0 0 Z " fill="#922240" transform="translate(208,5)"/>
<path d="M0 0 C2.07543945 -0.38818359 2.07543945 -0.38818359 4.61328125 -0.3984375 C5.53173828 -0.40230469 6.45019531 -0.40617188 7.39648438 -0.41015625 C8.35876953 -0.39855469 9.32105469 -0.38695312 10.3125 -0.375 C11.26318359 -0.38660156 12.21386719 -0.39820313 13.19335938 -0.41015625 C18.24286884 -0.3889843 21.94299095 -0.35640106 26 3 C29.13020912 6.66990035 29.57002271 10.10340971 29.4296875 14.78125 C28.69639493 18.56770617 26.72893495 20.33603969 24 23 C23.34 23.66 22.68 24.32 22 25 C22.5053125 25.59167969 23.010625 26.18335938 23.53125 26.79296875 C24.1809375 27.58316406 24.830625 28.37335938 25.5 29.1875 C26.47453125 30.35345703 26.47453125 30.35345703 27.46875 31.54296875 C29.21508151 34.34511804 29.47927094 35.75947492 29 39 C28.34 39.66 27.68 40.32 27 41 C24.56266687 40.77693644 23.36242149 40.36617112 21.63134766 38.6171875 C21.22964355 38.04226562 20.82793945 37.46734375 20.4140625 36.875 C19.95773438 36.25109375 19.50140625 35.6271875 19.03125 34.984375 C18.09635453 33.66513362 17.16662345 32.3422167 16.2421875 31.015625 C15.78328125 30.39171875 15.324375 29.7678125 14.8515625 29.125 C14.44760254 28.55007812 14.04364258 27.97515625 13.62744141 27.3828125 C11.57851909 25.40207413 11.57851909 25.40207413 6 25 C6 29.62 6 34.24 6 39 C4.35 39.66 2.7 40.32 1 41 C-0.47729492 39.99023438 -0.47729492 39.99023438 -2 38 C-2.28608245 35.30613513 -2.39675558 32.84839899 -2.36328125 30.15625 C-2.36377975 29.39074829 -2.36427826 28.62524658 -2.36479187 27.83654785 C-2.36245307 26.21929323 -2.35273587 24.60203486 -2.33618164 22.98486328 C-2.31258681 20.50910908 -2.31562205 18.03443183 -2.32226562 15.55859375 C-2.31668874 13.98697275 -2.30957879 12.41535628 -2.30078125 10.84375 C-2.30169266 10.10306274 -2.30260406 9.36237549 -2.30354309 8.59924316 C-2.25198479 4.86264194 -2.12552576 3.18828864 0 0 Z " fill="#010104" transform="translate(18,165)"/>
<path d="M0 0 C0.89460938 -0.02449219 1.78921875 -0.04898438 2.7109375 -0.07421875 C8.41559011 -0.09946058 11.74362059 0.53675886 16.25 4.375 C19.58262847 8.15197893 19.87651513 11.99262432 19.73828125 16.8671875 C18.91908407 21.07458421 16.52790303 23.72861957 13.25 26.375 C9.72021608 28.71270777 6.66695183 28.58333904 2.5 28.5 C0.74429688 28.47292969 0.74429688 28.47292969 -1.046875 28.4453125 C-1.93890625 28.42210937 -2.8309375 28.39890625 -3.75 28.375 C-3.75 32.005 -3.75 35.635 -3.75 39.375 C-5.4 40.035 -7.05 40.695 -8.75 41.375 C-10.22729492 40.38110352 -10.22729492 40.38110352 -11.75 38.375 C-12.03603126 35.59890247 -12.14665342 33.05190473 -12.11328125 30.27734375 C-12.11377975 29.48727432 -12.11427826 28.6972049 -12.11479187 27.88319397 C-12.11245308 26.21466555 -12.10273594 24.54613349 -12.08618164 22.87768555 C-12.06255565 20.31852836 -12.06562592 17.76041063 -12.07226562 15.20117188 C-12.06668992 13.58072293 -12.05958071 11.96027839 -12.05078125 10.33984375 C-12.05169266 9.57212143 -12.05260406 8.80439911 -12.05354309 8.01341248 C-11.93294498 -0.98098929 -7.57632865 0.01073134 0 0 Z " fill="#020205" transform="translate(101.75,164.625)"/>
<path d="M0 0 C2.78149414 -0.35644531 2.78149414 -0.35644531 6.28515625 -0.328125 C7.53748047 -0.32296875 8.78980469 -0.3178125 10.08007812 -0.3125 C11.39427734 -0.291875 12.70847656 -0.27125 14.0625 -0.25 C15.38056641 -0.24484375 16.69863281 -0.2396875 18.05664062 -0.234375 C27.84632305 -0.15367695 27.84632305 -0.15367695 29 1 C29.125 3.5 29.125 3.5 29 6 C28 7 28 7 25.86694336 7.11352539 C24.95050049 7.10828857 24.03405762 7.10305176 23.08984375 7.09765625 C22.10048828 7.09443359 21.11113281 7.09121094 20.09179688 7.08789062 C19.05087891 7.07951172 18.00996094 7.07113281 16.9375 7.0625 C15.89271484 7.05798828 14.84792969 7.05347656 13.77148438 7.04882812 C11.1809334 7.03699913 8.59049441 7.02051689 6 7 C6 9.97 6 12.94 6 16 C6.62567871 15.98952637 7.25135742 15.97905273 7.89599609 15.96826172 C10.7222901 15.92676809 13.54852011 15.90069527 16.375 15.875 C17.35984375 15.85824219 18.3446875 15.84148437 19.359375 15.82421875 C20.77089844 15.81455078 20.77089844 15.81455078 22.2109375 15.8046875 C23.51490479 15.78897705 23.51490479 15.78897705 24.84521484 15.77294922 C27 16 27 16 29 18 C28.44444444 22.55555556 28.44444444 22.55555556 27 24 C25.43827255 24.08685603 23.87270656 24.10702219 22.30859375 24.09765625 C21.36435547 24.09443359 20.42011719 24.09121094 19.44726562 24.08789062 C18.45404297 24.07951172 17.46082031 24.07113281 16.4375 24.0625 C15.44041016 24.05798828 14.44332031 24.05347656 13.41601562 24.04882812 C10.94395151 24.03700007 8.47200482 24.02051849 6 24 C6 26.97 6 29.94 6 33 C6.93851807 32.98428955 6.93851807 32.98428955 7.89599609 32.96826172 C10.7222901 32.92676809 13.54852011 32.90069527 16.375 32.875 C17.35984375 32.85824219 18.3446875 32.84148437 19.359375 32.82421875 C20.77089844 32.81455078 20.77089844 32.81455078 22.2109375 32.8046875 C23.51490479 32.78897705 23.51490479 32.78897705 24.84521484 32.77294922 C27 33 27 33 29 35 C28.75 37.5625 28.75 37.5625 28 40 C23.77236591 42.11381704 18.207412 41.2293903 13.5625 41.25 C12.40427734 41.270625 11.24605469 41.29125 10.05273438 41.3125 C8.38887695 41.32023437 8.38887695 41.32023437 6.69140625 41.328125 C5.16302124 41.34214355 5.16302124 41.34214355 3.60375977 41.35644531 C1 41 1 41 -0.83300781 39.96972656 C-2.67294474 36.86415937 -2.40687275 33.66206453 -2.36328125 30.15625 C-2.36377975 29.39074829 -2.36427826 28.62524658 -2.36479187 27.83654785 C-2.36245307 26.21929323 -2.35273587 24.60203486 -2.33618164 22.98486328 C-2.31258681 20.50910908 -2.31562205 18.03443183 -2.32226562 15.55859375 C-2.31668874 13.98697275 -2.30957879 12.41535628 -2.30078125 10.84375 C-2.30169266 10.10306274 -2.30260406 9.36237549 -2.30354309 8.59924316 C-2.25198479 4.86264194 -2.12552576 3.18828864 0 0 Z " fill="#010004" transform="translate(55,165)"/>
<path d="M0 0 C7.04695273 10.57042909 6.07448858 28.9683515 7 41 C-0.26 41 -7.52 41 -15 41 C-16.464375 38.298125 -17.92875 35.59625 -19.4375 32.8125 C-19.89825928 31.97050049 -20.35901855 31.12850098 -20.83374023 30.26098633 C-22.82710734 26.53841198 -24.52975403 23.26641344 -25 19 C-24.51120361 18.72325439 -24.02240723 18.44650879 -23.51879883 18.16137695 C-21.27852693 16.88671662 -19.04555969 15.59975027 -16.8125 14.3125 C-16.04357422 13.87744141 -15.27464844 13.44238281 -14.48242188 12.99414062 C-8.51391209 9.53599118 -4.00076452 5.68529695 0 0 Z " fill="#F86240" transform="translate(188,100)"/>
<path d="M0 0 C1.22355698 0.00222061 2.44711395 0.00444122 3.70774841 0.00672913 C4.71746201 0.00651009 4.71746201 0.00651009 5.74757385 0.00628662 C7.98229649 0.00698573 10.21693674 0.01477799 12.4516449 0.02259827 C13.99721226 0.02446245 15.54278022 0.02588635 17.08834839 0.02688599 C21.16380941 0.03071112 25.23923502 0.04054135 29.31468201 0.05158997 C33.47035747 0.0618042 37.62603864 0.06638363 41.78172302 0.07142639 C49.94124452 0.08216363 58.10073718 0.09923998 66.26023865 0.12025452 C66.75523865 1.11025452 66.75523865 1.11025452 67.26023865 2.12025452 C67.26023865 1.46025452 67.26023865 0.80025452 67.26023865 0.12025452 C87.92690531 0.12025452 108.59357198 0.12025452 129.26023865 0.12025452 C126.51023865 4.99525452 126.51023865 4.99525452 124.26023865 6.12025452 C122.52435104 6.21344818 120.78484964 6.24217097 119.04646301 6.24050903 C117.38895775 6.24257103 117.38895775 6.24257103 115.69796753 6.24467468 C114.48021133 6.24107941 113.26245514 6.23748413 112.00779724 6.23377991 C110.72978745 6.23392593 109.45177765 6.23407196 108.13504028 6.23422241 C104.62492611 6.23451 101.11484592 6.22861943 97.60473967 6.22164845 C93.9385263 6.21540858 90.27231221 6.21481061 86.60609436 6.21362305 C79.66108224 6.21051161 72.71608581 6.20230073 65.77108061 6.19227356 C57.86550362 6.18110662 49.95992589 6.1756005 42.05434299 6.17057812 C25.78963235 6.16011797 9.5249375 6.14252214 -6.73976135 6.12025452 C-3.21356431 0.14105083 -3.21356431 0.14105083 0 0 Z " fill="#E99863" transform="translate(50.73976135253906,228.87974548339844)"/>
<path d="M0 0 C6.25305237 3.72205498 10.90570784 8.34435271 14 15 C-0.34252165 26.32175082 -15.28550369 36.48438392 -31.00048828 45.81201172 C-32.34385971 46.61016134 -33.68075886 47.41929721 -35.01123047 48.23876953 C-36.63894362 49.22010447 -38.31601238 50.11872022 -40 51 C-40.66 50.67 -41.32 50.34 -42 50 C-41.5153125 49.53851563 -41.030625 49.07703125 -40.53125 48.6015625 C-35.96191332 44.15524642 -31.8736057 39.52189363 -27.95703125 34.4921875 C-26.55550949 32.70741527 -25.11738052 30.95115385 -23.65625 29.21484375 C-20.52591336 25.47915393 -17.62097639 21.57817506 -14.6875 17.6875 C-10.03042406 11.54661341 -5.29189066 5.61164236 0 0 Z " fill="#BF3548" transform="translate(217,10)"/>
<path d="M0 0 C0.89589844 -0.01417969 1.79179687 -0.02835938 2.71484375 -0.04296875 C5.0625 0.1875 5.0625 0.1875 7.0625 2.1875 C7.88663846 4.68254023 8.61883612 7.14485051 9.296875 9.6796875 C9.49855286 10.42203644 9.70023071 11.16438538 9.90802002 11.92922974 C10.33182038 13.50017829 10.75187105 15.07214248 11.16845703 16.64501953 C11.80925829 19.05033191 12.47235618 21.4487607 13.13671875 23.84765625 C13.5456555 25.37462985 13.95325244 26.90196302 14.359375 28.4296875 C14.56028748 29.14647675 14.76119995 29.86326599 14.96820068 30.60177612 C15.72552836 33.53708976 16.21576185 35.66168254 15.35644531 38.60986328 C14.0625 40.1875 14.0625 40.1875 11.0625 41.1875 C7.15961315 38.58557543 7.06726755 36.67030907 6.0625 32.1875 C6.0625 30.8675 6.0625 29.5475 6.0625 28.1875 C2.4325 28.5175 -1.1975 28.8475 -4.9375 29.1875 C-5.35 30.79625 -5.7625 32.405 -6.1875 34.0625 C-7.41826923 38.8625 -7.41826923 38.8625 -10.046875 40.5078125 C-10.67078125 40.73210937 -11.2946875 40.95640625 -11.9375 41.1875 C-12.9275 40.5275 -13.9175 39.8675 -14.9375 39.1875 C-14.40371146 31.58101335 -12.56839862 24.48525337 -10.49902344 17.17333984 C-9.93139175 15.16589804 -9.37511091 13.1555536 -8.8203125 11.14453125 C-5.71902766 0.04102602 -5.71902766 0.04102602 0 0 Z " fill="#010103" transform="translate(177.9375,164.8125)"/>
<path d="M0 0 C1.86113056 3.14065783 2.27966763 5.36432086 2 9 C1.67 9.99 1.34 10.98 1 12 C0.96079185 13.99961564 0.95556653 16.00049364 1 18 C4.63 18 8.26 18 12 18 C12 19.32 12 20.64 12 22 C13.32 22.33 14.64 22.66 16 23 C15.67 26.96 15.34 30.92 15 35 C10.95933506 33.98983376 8.03797121 32.51581392 4.375 30.5625 C-1.34884599 27.59712501 -6.62177302 25.8443449 -13 25 C-13.83144531 24.78085937 -14.66289062 24.56171875 -15.51953125 24.3359375 C-18.50291963 23.93188805 -19.57538963 24.48023225 -22.125 26 C-24.1328125 27.1875 -24.1328125 27.1875 -26 28 C-26.99 27.67 -27.98 27.34 -29 27 C-23.76535083 14.94520695 -16.57252185 7.28169199 -5 1 C-2 0 -2 0 0 0 Z " fill="#F2F1F6" transform="translate(34,5)"/>
<path d="M0 0 C3.78048304 -0.49221479 7.23657437 -0.68609368 11 0 C13.93489468 2.28380883 15.97208812 4.89930197 18 8 C18 5.36 18 2.72 18 0 C31.53 0 45.06 0 59 0 C59 5.94 59 11.88 59 18 C55.2493189 16.49972756 52.23936231 15.02473401 48.8125 13 C41.21576782 8.86648396 35.31878668 7.22406735 26.75 9.0625 C19.4203295 11.23043071 15.92664192 14.10433961 12.125 20.8125 C11.40421228 22.201943 10.69143287 23.59571819 10 25 C7.71505696 22.71505696 7.14044328 21.05318077 6.0546875 18.02734375 C5.70019531 17.04572266 5.34570312 16.06410156 4.98046875 15.05273438 C4.61566406 14.02470703 4.25085937 12.99667969 3.875 11.9375 C3.50246094 10.90560547 3.12992188 9.87371094 2.74609375 8.81054688 C0 1.16071429 0 1.16071429 0 0 Z " fill="#F2543D" transform="translate(41,5)"/>
<path d="M0 0 C1.32 0.33 2.64 0.66 4 1 C4 1.66 4 2.32 4 3 C4.66 3 5.32 3 6 3 C5.67515625 4.77117187 5.67515625 4.77117187 5.34375 6.578125 C5.0623177 8.13538373 4.78107777 9.69267724 4.5 11.25 C4.28537109 12.41595703 4.28537109 12.41595703 4.06640625 13.60546875 C3.86337891 14.73662109 3.86337891 14.73662109 3.65625 15.890625 C3.53056641 16.58188477 3.40488281 17.27314453 3.27539062 17.98535156 C2.90971022 20.32162694 2.90971022 20.32162694 3 24 C3.65355469 23.22076172 3.65355469 23.22076172 4.3203125 22.42578125 C7.95654106 18.16777334 11.58574336 14.44527348 16 11 C14.62355764 14.54331697 13.10380157 18.00613894 11.53759766 21.46923828 C7.24184891 31.02837099 3.57649763 40.58275093 2 51 C3.485 50.505 3.485 50.505 5 50 C3.9285625 55.62504685 1.37417509 57.62648321 -3.125 60.703125 C-5.11902382 61.99948256 -5.11902382 61.99948256 -7 64 C-7.12547004 58.32991215 -7.21520206 52.66066692 -7.2746582 46.98950195 C-7.29949443 45.06845999 -7.33337581 43.14750931 -7.37719727 41.22680664 C-7.71150629 26.17503459 -5.73722026 13.94902459 0 0 Z " fill="#C53247" transform="translate(12,90)"/>
<path d="M0 0 C1.69571816 4.09628302 0.159452 6.96572783 -1.375 10.9375 C-3.69315892 16.99190948 -5.1339348 22.02567006 -5.09765625 28.51953125 C-5.09282227 30.0519043 -5.09282227 30.0519043 -5.08789062 31.61523438 C-5.07951172 32.67033203 -5.07113281 33.72542969 -5.0625 34.8125 C-5.05798828 35.88693359 -5.05347656 36.96136719 -5.04882812 38.06835938 C-5.03707729 40.71229683 -5.02064787 43.35611952 -5 46 C-6.27875 46.04898438 -7.5575 46.09796875 -8.875 46.1484375 C-10.58335222 46.22352991 -12.29168459 46.29907487 -14 46.375 C-14.83917969 46.4059375 -15.67835937 46.436875 -16.54296875 46.46875 C-21.95552978 46.72049702 -26.78645864 47.51558892 -32 49 C-27.16529817 30.62813304 -12.89748743 13.53440039 0 0 Z " fill="#937FCC" transform="translate(48,95)"/>
<path d="M0 0 C4.29 0 8.58 0 13 0 C9.02950962 5.49760207 4.79108105 10.55970375 0.21875 15.56640625 C-1.69630605 17.66689907 -3.57553311 19.79009007 -5.4375 21.9375 C-8.24822525 25.16559512 -11.115799 28.33738443 -14 31.5 C-21.42396854 39.41001432 -21.42396854 39.41001432 -28 48 C-31.59391114 46.66511872 -34.75490696 45.03977277 -38 43 C-36.54559867 39.53240104 -34.7436489 37.70952357 -31.875 35.3125 C-26.8437024 30.89908106 -22.21870697 26.17811351 -17.625 21.3125 C-16.59028564 20.22545776 -16.59028564 20.22545776 -15.53466797 19.11645508 C-12.66425996 16.05536545 -9.94934854 13.10214838 -7.7109375 9.54296875 C-6 7 -6 7 -3 6 C-1.83333333 4.08333333 -1.83333333 4.08333333 -1 2 C-0.67 1.34 -0.34 0.68 0 0 Z " fill="#A02841" transform="translate(180,5)"/>
<path d="M0 0 C2.5625 -0.25 2.5625 -0.25 5 0 C6 1 6 1 6.11352539 4.05102539 C6.11336634 5.39991271 6.10767612 6.74880614 6.09765625 8.09765625 C6.0962413 8.80651474 6.09482635 9.51537323 6.09336853 10.24571228 C6.08775443 12.51801712 6.07519963 14.79022475 6.0625 17.0625 C6.05748681 18.59960796 6.05292359 20.13671745 6.04882812 21.67382812 C6.03778042 25.44925642 6.02050641 29.22461171 6 33 C6.62567871 32.99476318 7.25135742 32.98952637 7.89599609 32.98413086 C10.72232057 32.96338382 13.54862905 32.95034714 16.375 32.9375 C17.35984375 32.92912109 18.3446875 32.92074219 19.359375 32.91210938 C20.77089844 32.90727539 20.77089844 32.90727539 22.2109375 32.90234375 C23.08024902 32.89710693 23.94956055 32.89187012 24.84521484 32.88647461 C27 33 27 33 29 34 C29.125 36.375 29.125 36.375 29 39 C25.36209965 42.63790035 19.54194709 41.36952456 14.625 41.375 C13.47515625 41.39949219 12.3253125 41.42398438 11.140625 41.44921875 C10.03460938 41.45308594 8.92859375 41.45695312 7.7890625 41.4609375 C6.77537598 41.46915527 5.76168945 41.47737305 4.71728516 41.48583984 C2 41 2 41 -0.33300781 39.45385742 C-2.60160606 36.11441966 -2.53942237 33.17482979 -2.4609375 29.27734375 C-2.46002106 28.53545303 -2.45910461 27.79356232 -2.4581604 27.02919006 C-2.45213211 25.46495137 -2.43640902 23.90072381 -2.41162109 22.33666992 C-2.37507042 19.94211336 -2.37060215 17.54910353 -2.37109375 15.15429688 C-2.36126349 13.63279913 -2.34960688 12.11131185 -2.3359375 10.58984375 C-2.33371185 9.87416733 -2.33148621 9.15849091 -2.32919312 8.42112732 C-2.25889236 4.74309924 -2.09475556 3.14213334 0 0 Z " fill="#040308" transform="translate(129,165)"/>
<path d="M0 0 C1.8515625 1.6796875 1.8515625 1.6796875 3.625 3.875 C4.21539062 4.59429687 4.80578125 5.31359375 5.4140625 6.0546875 C6.19910156 7.01761719 6.19910156 7.01761719 7 8 C7.66 8.66 8.32 9.32 9 10 C9 10.99 9 11.98 9 13 C8.21496094 13.3403125 7.42992187 13.680625 6.62109375 14.03125 C-0.84829079 17.46492144 -0.84829079 17.46492144 -6.5 23.25 C-9.31196098 26.85754018 -11.36879231 27.65990911 -15.875 28.375 C-17.91587915 28.59091165 -19.95755412 28.79944976 -22 29 C-23.75591709 29.34623717 -25.50713004 29.71814708 -27.25 30.125 C-28.4875 30.41375 -29.725 30.7025 -31 31 C-26.07380487 25.12580856 -21.09576118 19.70244434 -15 15 C-17.31 14.67 -19.62 14.34 -22 14 C-16.49349639 7.92385808 -8.45236156 0 0 0 Z " fill="#D23742" transform="translate(38,37)"/>
<path d="M0 0 C4.03737666 0.59898313 5.12705526 2.72284869 7.55078125 5.90625 C8.73607422 7.43765625 8.73607422 7.43765625 9.9453125 9 C10.53699219 9.7940625 11.12867188 10.588125 11.73828125 11.40625 C12.40214844 10.60058594 13.06601563 9.79492188 13.75 8.96484375 C14.64104719 7.92372546 15.53302319 6.88340159 16.42578125 5.84375 C17.07836914 5.04420898 17.07836914 5.04420898 17.74414062 4.22851562 C19.0625 2.71484375 19.0625 2.71484375 21.73828125 0.40625 C24.5703125 0.56640625 24.5703125 0.56640625 26.73828125 1.40625 C27.57421875 3.03125 27.57421875 3.03125 27.73828125 5.40625 C26.5205821 6.87920567 25.28645534 8.34238686 23.96411133 9.72216797 C16.33664038 17.74630929 15.42131176 24.69465121 15.5703125 35.5234375 C15.62574219 36.80476563 15.68117187 38.08609375 15.73828125 39.40625 C14.08828125 40.06625 12.43828125 40.72625 10.73828125 41.40625 C8.7990451 39.7993817 7.81524076 38.9647385 7.46459961 36.42016602 C7.50206299 35.67436279 7.53952637 34.92855957 7.578125 34.16015625 C7.938972 21.7309229 7.938972 21.7309229 1.67578125 11.46875 C0.75667969 10.59347656 -0.16242188 9.71820313 -1.109375 8.81640625 C-3.26171875 6.40625 -3.26171875 6.40625 -3.6328125 3.65234375 C-3.13676707 0.64996352 -2.99556862 0.53806414 0 0 Z " fill="#020205" transform="translate(196.26171875,164.59375)"/>
<path d="M0 0 C2.63739583 1.31869792 2.93280025 2.59789768 4.1640625 5.25390625 C4.5245166 6.0229126 4.8849707 6.79191895 5.25634766 7.58422852 C5.70800293 8.56705811 6.1596582 9.5498877 6.625 10.5625 C8.06875 13.676875 9.5125 16.79125 11 20 C18.59 20.33 26.18 20.66 34 21 C33.67 17.7 33.34 14.4 33 11 C35.97 11.495 35.97 11.495 39 12 C38.67 14.64 38.34 17.28 38 20 C42.29 20.33 46.58 20.66 51 21 C51 21.33 51 21.66 51 22 C19.65 22 -11.7 22 -44 22 C-43.34 21.67 -42.68 21.34 -42 21 C-42 20.34 -42 19.68 -42 19 C-43.093125 19.061875 -44.18625 19.12375 -45.3125 19.1875 C-49 19 -49 19 -50.9375 17.5 C-51.288125 17.005 -51.63875 16.51 -52 16 C-42.99722616 11.49861308 -25.58218892 12.88088001 -16.125 15.8125 C-13.66771501 16.76050549 -11.44294826 17.73058775 -9.1953125 19.09765625 C-5.82211739 20.48414748 -2.34915826 20.47238552 1.25 20.625 C1.99507812 20.66367188 2.74015625 20.70234375 3.5078125 20.7421875 C5.3381524 20.83605108 7.16904143 20.91909718 9 21 C8.566875 20.15695313 8.13375 19.31390625 7.6875 18.4453125 C7.130625 17.34960938 6.57375 16.25390625 6 15.125 C5.443125 14.03445312 4.88625 12.94390625 4.3125 11.8203125 C3 9 3 9 3 7 C0.93722893 7.14194764 -1.12521031 7.28872216 -3.1875 7.4375 C-4.33605469 7.51871094 -5.48460937 7.59992188 -6.66796875 7.68359375 C-9.51598171 7.95403812 -12.21210482 8.37521747 -15 9 C-13.26637241 5.53274483 -9.50993051 4.34259637 -6 3 C-2.5 2.75 -2.5 2.75 0 3 C0 2.01 0 1.02 0 0 Z " fill="#4A3851" transform="translate(162,120)"/>
<path d="M0 0 C-1.15567624 2.38761539 -2.39239926 4.69368973 -3.69921875 7.00390625 C-10.46574662 19.02569098 -15.35669541 31.70016964 -19 45 C-19.33 45 -19.66 45 -20 45 C-20 31.8 -20 18.6 -20 5 C-12.15665106 1.51406714 -8.15609398 -0.15684796 0 0 Z " fill="#6565D5" transform="translate(25,66)"/>
<path d="M0 0 C2.3125 0.9375 2.3125 0.9375 4.3125 2.9375 C3.34763672 3.72060547 3.34763672 3.72060547 2.36328125 4.51953125 C-2.86341661 8.77694135 -8.05082934 13.07221174 -13.1875 17.4375 C-18.03289973 21.55498579 -22.92965485 25.60155876 -27.86328125 29.61328125 C-31.06504995 32.24820846 -34.22022766 34.93420482 -37.375 37.625 C-41.54204258 41.17674171 -45.75773235 44.61130793 -50.19921875 47.81640625 C-51.84443954 49.00154242 -51.84443954 49.00154242 -53.6875 50.9375 C-55.3375 49.6175 -56.9875 48.2975 -58.6875 46.9375 C-53.58162869 42.2142392 -48.30904879 37.7580312 -42.8125 33.5 C-42.25344971 33.06316895 -41.69439941 32.62633789 -41.1184082 32.17626953 C-35.58990631 27.9375 -35.58990631 27.9375 -31.6875 27.9375 C-30.02635457 26.53909042 -30.02635457 26.53909042 -28.2734375 24.68359375 C-27.59410156 23.99330078 -26.91476563 23.30300781 -26.21484375 22.59179688 C-25.50457031 21.86025391 -24.79429687 21.12871094 -24.0625 20.375 C-19.3349963 15.52775652 -14.57376607 10.84477077 -9.40551758 6.46508789 C-7.8017742 5.03910774 -6.41833218 3.54373441 -5 1.9375 C-2.6875 -0.0625 -2.6875 -0.0625 0 0 Z " fill="#A02744" transform="translate(212.6875,7.0625)"/>
<path d="M0 0 C1.37261742 -0.02409439 1.37261742 -0.02409439 2.77296448 -0.04867554 C6.98714566 -0.09312287 11.20116614 -0.1342397 15.41552734 -0.15722656 C17.6337334 -0.17373565 19.85188738 -0.20095826 22.06982422 -0.23925781 C25.27070685 -0.2942599 28.47033806 -0.31594227 31.67163086 -0.33056641 C32.65527115 -0.35323578 33.63891144 -0.37590515 34.65235901 -0.39926147 C41.18084231 -0.37940708 45.67868225 0.87022737 50.69897461 5.19287109 C50.69897461 5.52287109 50.69897461 5.85287109 50.69897461 6.19287109 C31.22897461 6.19287109 11.75897461 6.19287109 -8.30102539 6.19287109 C-4.62948061 0.0736298 -4.62948061 0.0736298 0 0 Z " fill="#AC9B3D" transform="translate(52.301025390625,228.80712890625)"/>
<path d="M0 0 C0.33 0 0.66 0 1 0 C1 12.54 1 25.08 1 38 C2.98 38 4.96 38 7 38 C6.34 40.31 5.68 42.62 5 45 C1.7 45 -1.6 45 -5 45 C-10.25565792 31.59701694 -6.81378551 16.98263364 -2 4 C-1.36587419 2.65088671 -0.71711533 1.30689243 0 0 Z " fill="#8B2A44" transform="translate(49,97)"/>
<path d="M0 0 C1.00484204 1.95585325 2.00373805 3.91476237 3 5.875 C3.556875 6.96554688 4.11375 8.05609375 4.6875 9.1796875 C6 12 6 12 6 14 C-4.54816258 14.60236969 -12.41833535 14.03495117 -22 9 C-23.15242187 8.42378906 -23.15242187 8.42378906 -24.328125 7.8359375 C-24.87984375 7.56007812 -25.4315625 7.28421875 -26 7 C-18.12287003 0.15032177 -10.1100147 -0.56253559 0 0 Z " fill="#F1E1C3" transform="translate(165,127)"/>
<path d="M0 0 C8.91 0 17.82 0 27 0 C27 8.91 27 17.82 27 27 C24.69413983 23.92551977 22.76763767 20.97083096 20.8125 17.6875 C15.43112177 9.22621347 9.36085246 4.48865103 0 1 C0 0.67 0 0.34 0 0 Z " fill="#020000" transform="translate(208,5)"/>
<path d="M0 0 C8.58 0 17.16 0 26 0 C23.83279329 1.62540504 21.65289155 3.23647419 19.4140625 4.76171875 C10.8242564 10.69277534 5.91496676 16.92621521 1 26 C0.67 26 0.34 26 0 26 C0 17.42 0 8.84 0 0 Z " fill="#020202" transform="translate(5,5)"/>
<path d="M0 0 C3.78048304 -0.49221479 7.23657437 -0.68609368 11 0 C13.93489468 2.28380883 15.97208812 4.89930197 18 8 C18 5.36 18 2.72 18 0 C20.15037451 3.58395752 21 6.81678261 21 11 C18.375 13.375 18.375 13.375 16.703125 14.53515625 C13.4888357 17.29973994 11.84868347 21.24537296 10 25 C7.71505696 22.71505696 7.14044328 21.05318077 6.0546875 18.02734375 C5.70019531 17.04572266 5.34570312 16.06410156 4.98046875 15.05273438 C4.61566406 14.02470703 4.25085937 12.99667969 3.875 11.9375 C3.50246094 10.90560547 3.12992188 9.87371094 2.74609375 8.81054688 C0 1.16071429 0 1.16071429 0 0 Z " fill="#BA2B37" transform="translate(41,5)"/>
<path d="M0 0 C0.19889224 5.81645052 0.34345279 11.63089113 0.43945312 17.44995117 C0.47949826 19.42588814 0.53395419 21.40159083 0.60351562 23.37670898 C1.23979592 41.91772959 1.23979592 41.91772959 -4.03125 47.84765625 C-6.26757812 49.78930664 -6.26757812 49.78930664 -8 51 C-8 48 -8 48 -6.71578979 46.4997406 C-5.89136887 45.70214073 -5.89136887 45.70214073 -5.05029297 44.88842773 C-1.30626657 40.68446261 -1.13439634 37.25752577 -1.1953125 31.78515625 C-1.18160614 30.92941513 -1.16789978 30.07367401 -1.15377808 29.19200134 C-1.11664136 26.48162475 -1.12018159 23.77309376 -1.125 21.0625 C-1.10686166 19.21546636 -1.0860554 17.36845687 -1.0625 15.52148438 C-1.01080251 11.01401592 -0.99555856 6.50774855 -1 2 C-10.37954927 4.51621347 -16.14719829 9.54776868 -21.24633789 17.87744141 C-25.66067993 25.56361517 -28.93163642 33.70147124 -32 42 C-34 42 -34 42 -35.625 40.5 C-36.07875 40.005 -36.5325 39.51 -37 39 C-34.33184559 29.58298445 -30.11322481 20.84536278 -23 14 C-22.525625 13.195625 -22.05125 12.39125 -21.5625 11.5625 C-16.73593398 3.64693172 -9.1641499 -0.17087321 0 0 Z " fill="#AC313D" transform="translate(50,51)"/>
<path d="M0 0 C2.31 1.98 4.62 3.96 7 6 C8.2628876 6.92248859 9.54413325 7.82179535 10.859375 8.66796875 C11.50003906 9.08626953 12.14070313 9.50457031 12.80078125 9.93554688 C13.44402344 10.34869141 14.08726563 10.76183594 14.75 11.1875 C16.05943472 12.03184196 17.36680603 12.87939436 18.671875 13.73046875 C19.2400293 14.09551514 19.80818359 14.46056152 20.39355469 14.83666992 C22 16 22 16 25 19 C16.75 19 8.5 19 0 19 C0 12.73 0 6.46 0 0 Z " fill="#010102" transform="translate(5,216)"/>
<path d="M0 0 C0 9.9 0 19.8 0 30 C-4.97101531 27.51449235 -7.01353965 25.16796257 -9 20 C-9.80224065 13.34707501 -9.57210851 7.24262635 -7 1 C-5 0 -5 0 0 0 Z " fill="#FD8258" transform="translate(49,53)"/>
<path d="M0 0 C0.33 0 0.66 0 1 0 C1 6.27 1 12.54 1 19 C-6.59 19 -14.18 19 -22 19 C-20.82418411 15.47255234 -20.05490417 15.11272607 -17 13.1875 C-16.19304687 12.66800781 -15.38609375 12.14851562 -14.5546875 11.61328125 C-13.71164063 11.08089844 -12.86859375 10.54851562 -12 10 C-10.3704038 8.96553846 -8.7451868 7.92413735 -7.125 6.875 C-6.04605469 6.19050781 -6.04605469 6.19050781 -4.9453125 5.4921875 C-2.84441019 3.88065199 -1.53454293 2.141009 0 0 Z " fill="#020101" transform="translate(234,216)"/>
<path d="M0 0 C0 0.33 0 0.66 0 1 C-11.22 1 -22.44 1 -34 1 C-34 0.34 -34 -0.32 -34 -1 C-35.093125 -0.938125 -36.18625 -0.87625 -37.3125 -0.8125 C-41 -1 -41 -1 -42.9375 -2.5 C-43.4634375 -3.2425 -43.4634375 -3.2425 -44 -4 C-39.9755603 -6.01221985 -34.93194015 -5.48964553 -30.5 -5.6875 C-29.448125 -5.74744141 -28.39625 -5.80738281 -27.3125 -5.86914062 C-17.05208847 -6.33263694 -8.99399398 -4.99666332 0 0 Z " fill="#481217" transform="translate(154,140)"/>
<path d="M0 0 C1.86113056 3.14065783 2.27966763 5.36432086 2 9 C1.67 9.99 1.34 10.98 1 12 C0.96079185 13.99961564 0.95556653 16.00049364 1 18 C4.63 18 8.26 18 12 18 C12 19.32 12 20.64 12 22 C13.32 22.33 14.64 22.66 16 23 C15.67 23.99 15.34 24.98 15 26 C14.34 25.67 13.68 25.34 13 25 C13 24.34 13 23.68 13 23 C12.319375 22.87625 11.63875 22.7525 10.9375 22.625 C8 22 8 22 4.8125 21.0625 C0.93343464 19.981449 -2.88264925 19.33082844 -6.86328125 18.7578125 C-9 18 -9 18 -10.29296875 15.9296875 C-10.52628906 15.29289062 -10.75960938 14.65609375 -11 14 C-10.360625 13.278125 -9.72125 12.55625 -9.0625 11.8125 C-7.00048655 9.00066348 -6.27794266 7.42795945 -6 4 C-6.33 3.34 -6.66 2.68 -7 2 C-2.25 0 -2.25 0 0 0 Z " fill="#E9E0EE" transform="translate(34,5)"/>
<path d="M0 0 C-2.75293626 3.37389932 -6.50629718 4.86242497 -10.375 6.625 C-11.035 6.93695313 -11.695 7.24890625 -12.375 7.5703125 C-17.44336756 9.91266563 -21.74960988 11.15678627 -27.3125 11.0625 C-29.1378125 11.0315625 -29.1378125 11.0315625 -31 11 C-29.91828571 4.50971429 -29.91828571 4.50971429 -28 2 C-25.252335 1.3549225 -22.84892408 0.97923433 -20.0625 0.75 C-18.92083374 0.63615967 -18.92083374 0.63615967 -17.75610352 0.52001953 C-11.83567739 -0.03167786 -5.94427915 -0.23109509 0 0 Z " fill="#B2293D" transform="translate(232,130)"/>
<path d="M0 0 C10.07203115 -0.60674886 10.07203115 -0.60674886 14.25 2.125 C16 5 16 5 15.9375 8.1875 C15 11 15 11 13 13 C8.65604929 13.27917421 4.35649033 13.08542138 0 13 C0 8.71 0 4.42 0 0 Z " fill="#727195" transform="translate(98,172)"/>
<path d="M0 0 C2.31 0 4.62 0 7 0 C10.14169523 7.2271408 12.92957946 14.39162534 15 22 C14.01 22 13.02 22 12 22 C12 20.68 12 19.36 12 18 C8.37 18 4.74 18 1 18 C0.12109375 11.84765625 0.12109375 11.84765625 0 10 C0.33 9.67 0.66 9.34 1 9 C0.91062197 7.47480724 0.75462854 5.95318071 0.5625 4.4375 C0.46066406 3.61121094 0.35882813 2.78492188 0.25390625 1.93359375 C0.17011719 1.29550781 0.08632813 0.65742187 0 0 Z " fill="#9D7AC1" transform="translate(34,5)"/>
<path d="M0 0 C27.39 0 54.78 0 83 0 C77.41222706 5.58777294 66.61157637 6.48396092 59 7 C59.99 5.35 60.98 3.7 62 2 C61.3927861 2 60.7855722 2 60.15995789 2 C9.625 2 9.625 2 5.3125 1.5 C4.50425781 1.4071875 3.69601563 1.314375 2.86328125 1.21875 C2.24839844 1.1465625 1.63351563 1.074375 1 1 C1 1.66 1 2.32 1 3 C1.66 3.33 2.32 3.66 3 4 C1.35 3.67 -0.3 3.34 -2 3 C-1.34 2.67 -0.68 2.34 0 2 C0 1.34 0 0.68 0 0 Z " fill="#756E82" transform="translate(117,228)"/>
<path d="M0 0 C0 3.63 0 7.26 0 11 C-19.14482625 20.67812075 -19.14482625 20.67812075 -25 23 C-25.66 22.67 -26.32 22.34 -27 22 C-26.56768066 21.65332275 -26.13536133 21.30664551 -25.68994141 20.94946289 C-17.85406545 14.6547466 -10.0862458 8.35899652 -2.72265625 1.51171875 C-1 0 -1 0 0 0 Z " fill="#8C2142" transform="translate(235,67)"/>
<path d="M0 0 C4.24994263 -0.05805933 8.49978324 -0.09361654 12.75 -0.125 C13.9565625 -0.14175781 15.163125 -0.15851563 16.40625 -0.17578125 C17.56640625 -0.18222656 18.7265625 -0.18867188 19.921875 -0.1953125 C20.99018555 -0.20578613 22.05849609 -0.21625977 23.15917969 -0.22705078 C26.03618 0.00289166 27.51724621 0.62526824 30 2 C32.32495277 2.38749213 34.65851268 2.72982839 37 3 C37 3.66 37 4.32 37 5 C24.79 5 12.58 5 0 5 C0 3.35 0 1.7 0 0 Z " fill="#EEDEC3" transform="translate(83,136)"/>
<path d="M0 0 C5.94 0 11.88 0 18 0 C18.66 2.64 19.32 5.28 20 8 C19.20335938 8.06058594 18.40671875 8.12117187 17.5859375 8.18359375 C9.75667303 8.79667866 9.75667303 8.79667866 2 10 C0.68373308 6.38026598 0 3.90432869 0 0 Z " fill="#BF3140" transform="translate(60,5)"/>
<path d="M0 0 C1.91541138 -0.10841951 3.83259773 -0.18578079 5.75 -0.25 C6.81734375 -0.29640625 7.8846875 -0.3428125 8.984375 -0.390625 C12 0 12 0 14.3984375 1.84765625 C16 4 16 4 15.875 6.6875 C15 9 15 9 13 10 C10.7927077 10.07092842 8.58332548 10.08415025 6.375 10.0625 C5.18648437 10.05347656 3.99796875 10.04445312 2.7734375 10.03515625 C1.85820312 10.02355469 0.94296875 10.01195312 0 10 C0 6.7 0 3.4 0 0 Z " fill="#727195" transform="translate(24,172)"/>
<path d="M0 0 C2.77458741 1.50058007 5.45752567 3.05175948 8.10546875 4.765625 C8.86730469 5.2296875 9.62914062 5.69375 10.4140625 6.171875 C12.10546875 7.765625 12.10546875 7.765625 12.49609375 10.02734375 C12.4496875 10.82785156 12.40328125 11.62835938 12.35546875 12.453125 C12.319375 13.26136719 12.28328125 14.06960937 12.24609375 14.90234375 C12.1996875 15.51722656 12.15328125 16.13210937 12.10546875 16.765625 C10.68945161 17.24670775 9.27262438 17.72540641 7.85546875 18.203125 C7.0665625 18.46996094 6.27765625 18.73679687 5.46484375 19.01171875 C3.35724887 19.68517208 1.25792902 20.25713095 -0.89453125 20.765625 C1.2321671 18.42625682 3.16771731 16.95908652 6.10546875 15.765625 C7.09546875 15.765625 8.08546875 15.765625 9.10546875 15.765625 C6.4412888 10.75069803 2.30927284 4.36752704 -2.89453125 1.765625 C-9.95700184 0.81490781 -14.76101714 2.20665869 -20.86328125 5.76953125 C-21.53359375 6.09824219 -22.20390625 6.42695312 -22.89453125 6.765625 C-23.55453125 6.435625 -24.21453125 6.105625 -24.89453125 5.765625 C-23.29259054 4.78282085 -21.68789383 3.80450783 -20.08203125 2.828125 C-19.18871094 2.28285156 -18.29539062 1.73757812 -17.375 1.17578125 C-11.70597449 -2.04708207 -6.02224978 -2.56819289 0 0 Z " fill="#7B192D" transform="translate(37.89453125,34.234375)"/>
<path d="M0 0 C0.33 0 0.66 0 1 0 C3.01863651 11.68016094 4.5259334 23.14833503 5 35 C2.03 35 -0.94 35 -4 35 C-5.97094808 30.07262981 -6.1799928 26.21979128 -6 21 C-3.87961365 23.61514317 -1.86908256 26.19637616 0 29 C0 19.43 0 9.86 0 0 Z " fill="#C53442" transform="translate(190,106)"/>
<path d="M0 0 C-5.2020417 4.33503475 -8.2255407 6.2624947 -15.078125 6.1953125 C-16.81835938 6.18564453 -16.81835938 6.18564453 -18.59375 6.17578125 C-19.8003125 6.15902344 -21.006875 6.14226562 -22.25 6.125 C-24.08304688 6.11146484 -24.08304688 6.11146484 -25.953125 6.09765625 C-28.96894782 6.07409513 -31.98437492 6.04119706 -35 6 C-23.30716078 0.0619145 -12.84086433 -0.5188228 0 0 Z " fill="#F2E4C7" transform="translate(216,229)"/>
<path d="M0 0 C6.93 0 13.86 0 21 0 C21 0.66 21 1.32 21 2 C24.63 2.99 28.26 3.98 32 5 C32 5.33 32 5.66 32 6 C27.97941398 6.11686443 23.95926918 6.18747388 19.9375 6.25 C18.2369043 6.30027344 18.2369043 6.30027344 16.50195312 6.3515625 C9.74066038 6.43041139 5.49770979 6.05346382 0 2 C0 1.34 0 0.68 0 0 Z " fill="#E7D9C5" transform="translate(96,229)"/>
<path d="M0 0 C1.30710937 0.23009766 1.30710937 0.23009766 2.640625 0.46484375 C3.50171875 0.62082031 4.3628125 0.77679687 5.25 0.9375 C6.55710937 1.16759766 6.55710937 1.16759766 7.890625 1.40234375 C8.93476562 1.69818359 8.93476562 1.69818359 10 2 C10.33 2.66 10.66 3.32 11 4 C10.39671875 4.12117188 9.7934375 4.24234375 9.171875 4.3671875 C8.37265625 4.53476562 7.5734375 4.70234375 6.75 4.875 C5.56664062 5.11863281 5.56664062 5.11863281 4.359375 5.3671875 C1.99985052 5.88119614 1.99985052 5.88119614 0.15625 7.125 C-3.13149945 8.4591592 -5.79499991 7.70083335 -9.25 7.125 C-10.51328125 6.92132813 -11.7765625 6.71765625 -13.078125 6.5078125 C-14.04234375 6.34023438 -15.0065625 6.17265625 -16 6 C-16 5.34 -16 4.68 -16 4 C-14.27921959 3.1290621 -12.54793677 2.27885442 -10.8125 1.4375 C-9.84957031 0.96183594 -8.88664063 0.48617188 -7.89453125 -0.00390625 C-4.62336148 -1.12961245 -3.27012909 -0.94320681 0 0 Z " fill="#BB91B3" transform="translate(21,29)"/>
<path d="M0 0 C1.32 0.99 2.64 1.98 4 3 C3.030625 3.763125 2.06125 4.52625 1.0625 5.3125 C-2.98071402 8.7734912 -6.13904826 12.74558657 -9.4453125 16.8984375 C-13.99587853 22.52359503 -19.04839396 27.73001659 -24 33 C-24 28.5838033 -21.34048018 26.0556013 -18.75 22.6875 C-18.21729492 21.98560547 -17.68458984 21.28371094 -17.13574219 20.56054688 C-11.69865251 13.4703526 -5.90559056 6.70137936 0 0 Z " fill="#A62A43" transform="translate(217,10)"/>
<path d="M0 0 C0.66 0 1.32 0 2 0 C1.93941406 0.70640625 1.87882812 1.4128125 1.81640625 2.140625 C0.97731191 12.41630344 0.48253995 22.70239204 0 33 C-0.66 32.67 -1.32 32.34 -2 32 C-3.40559695 26.54663967 -3.14806027 20.90461651 -3.125 15.3125 C-3.12886719 14.36310547 -3.13273437 13.41371094 -3.13671875 12.43554688 C-3.13542969 11.52482422 -3.13414063 10.61410156 -3.1328125 9.67578125 C-3.13168457 8.84989502 -3.13055664 8.02400879 -3.12939453 7.1730957 C-3 5 -3 5 -2 2 C-1.34 2 -0.68 2 0 2 C0 1.34 0 0.68 0 0 Z " fill="#DE5840" transform="translate(46,108)"/>
<path d="M0 0 C0 3.96 0 7.92 0 12 C-0.99 11.34 -1.98 10.68 -3 10 C-3 9.34 -3 8.68 -3 8 C-3.99 8.061875 -4.98 8.12375 -6 8.1875 C-10.46888211 8.21491645 -13.91304608 6.7208227 -18 5 C-17.67 4.34 -17.34 3.68 -17 3 C-14.73167936 2.36765486 -12.43298739 1.84226125 -10.125 1.375 C-8.86945313 1.11460937 -7.61390625 0.85421875 -6.3203125 0.5859375 C-3 0 -3 0 0 0 Z " fill="#A9283D" transform="translate(235,138)"/>
<path d="M0 0 C0.02701408 2.10409639 0.04640223 4.20829178 0.0625 6.3125 C0.07410156 7.48425781 0.08570313 8.65601563 0.09765625 9.86328125 C0 13 0 13 -1 16 C-2.32 15.67 -3.64 15.34 -5 15 C-5.5625 13.0625 -5.5625 13.0625 -6 11 C-5.67 10.67 -5.34 10.34 -5 10 C-6.32 9.67 -7.64 9.34 -9 9 C-8.6875 5.625 -8.6875 5.625 -8 2 C-4.77208445 -0.1519437 -3.71599191 -0.20086443 0 0 Z " fill="#FEAD86" transform="translate(49,53)"/>
<path d="M0 0 C1.98 0 3.96 0 6 0 C6 5.94 6 11.88 6 18 C1 16 1 16 -1 14 C-0.9765625 10.7421875 -0.9765625 10.7421875 -0.625 6.875 C-0.51414062 5.59367188 -0.40328125 4.31234375 -0.2890625 2.9921875 C-0.19367188 2.00476563 -0.09828125 1.01734375 0 0 Z " fill="#C13043" transform="translate(94,5)"/>
<path d="M0 0 C14.32278887 -0.90523244 14.32278887 -0.90523244 20.7421875 3.80859375 C21.36480469 4.39833984 21.36480469 4.39833984 22 5 C22 5.33 22 5.66 22 6 C15.4 6 8.8 6 2 6 C1.34 4.02 0.68 2.04 0 0 Z " fill="#A0512C" transform="translate(81,229)"/>
<path d="M0 0 C2.33541266 3.503119 2.64559769 5.92556407 3.2890625 10.07421875 C3.45128799 11.09996758 3.45128799 11.09996758 3.61679077 12.1464386 C3.95982514 14.32576979 4.29253422 16.50653408 4.625 18.6875 C4.85609146 20.16742395 5.08785448 21.64724321 5.3203125 23.12695312 C5.88799917 26.75012068 6.44643815 30.37464435 7 34 C9.64 34.99 12.28 35.98 15 37 C14.01 40.3 13.02 43.6 12 47 C11.34 46.67 10.68 46.34 10 46 C10.66 43.36 11.32 40.72 12 38 C10.02 37.67 8.04 37.34 6 37 C6.33 37.66 6.66 38.32 7 39 C7.13415472 41.6723621 7.04318541 44.32250488 7 47 C4.42562523 43.03695835 4.43917018 38.7646546 4.0625 34.1875 C3.17917282 24.67095129 1.46087856 15.55546137 -0.6171875 6.23046875 C-1.03149642 3.81648513 -0.76803463 2.3041039 0 0 Z " fill="#600E24" transform="translate(189,94)"/>
<path d="M0 0 C4.29 0 8.58 0 13 0 C14.00484204 1.95585325 15.00373805 3.91476237 16 5.875 C16.556875 6.96554688 17.11375 8.05609375 17.6875 9.1796875 C19 12 19 12 19 14 C16.21875 14.37109375 16.21875 14.37109375 13 14 C11.09375 11.41015625 11.09375 11.41015625 9.5 8.0625 C8.02142655 4.72796272 8.02142655 4.72796272 6 2 C2.88922758 1.02306366 2.88922758 1.02306366 0 1 C0 0.67 0 0.34 0 0 Z " fill="#E39083" transform="translate(152,127)"/>
<path d="M0 0 C1 2 1 2 -0.05859375 5.203125 C-1.98572516 9.43207738 -4.83417233 12.46367842 -8.0625 15.75 C-12.31267542 20.13737139 -12.31267542 20.13737139 -16 25 C-18.625 25.1875 -18.625 25.1875 -21 25 C-17.32625469 19.76769608 -13.35404609 15.26707303 -8.7578125 10.828125 C-6.75803948 8.74836106 -5.43433954 6.49122131 -4 4 C-3.01 3.67 -2.02 3.34 -1 3 C-0.67 2.01 -0.34 1.02 0 0 Z " fill="#B32F44" transform="translate(178,8)"/>
<path d="M0 0 C4.62 0 9.24 0 14 0 C14 2.31 14 4.62 14 7 C9.71 7 5.42 7 1 7 C0.67 4.69 0.34 2.38 0 0 Z " fill="#533C4B" transform="translate(69,135)"/>
<path d="M0 0 C18.15 0 36.3 0 55 0 C54.67 0.66 54.34 1.32 54 2 C53.1300943 1.98334541 53.1300943 1.98334541 52.24261475 1.96635437 C46.20828651 1.85576318 40.17424591 1.7803342 34.13916016 1.7253418 C31.88676257 1.70019257 29.63444664 1.66606882 27.38232422 1.62280273 C24.145303 1.562171 20.90936028 1.53379408 17.671875 1.51171875 C16.66445251 1.48591232 15.65703003 1.4601059 14.61907959 1.43351746 C11.98284717 1.43245908 9.58224899 1.46727564 7 2 C4.56008269 4.39304687 4.56008269 4.39304687 3 7 C1.68 7 0.36 7 -1 7 C-0.67 4.69 -0.34 2.38 0 0 Z " fill="#737089" transform="translate(41,228)"/>
<path d="M0 0 C6.6 0.33 13.2 0.66 20 1 C19.67 2.98 19.34 4.96 19 7 C11.91045996 7.65643889 6.98599234 5.85063835 1 2 C0.67 1.34 0.34 0.68 0 0 Z " fill="#BCCFF7" transform="translate(21,228)"/>
<path d="M0 0 C1.86113056 3.14065783 2.27966763 5.36432086 2 9 C1.67 9.99 1.34 10.98 1 12 C0.96125079 13.66621616 0.9549714 15.33394172 1 17 C-0.98 16.67 -2.96 16.34 -5 16 C-4.34 11.38 -3.68 6.76 -3 2 C-3.66 1.67 -4.32 1.34 -5 1 C-2 0 -2 0 0 0 Z " fill="#CFB8DA" transform="translate(34,5)"/>
<path d="M0 0 C1.60875 -0.061875 3.2175 -0.12375 4.875 -0.1875 C5.77992187 -0.22230469 6.68484375 -0.25710937 7.6171875 -0.29296875 C8.79667969 -0.14794922 8.79667969 -0.14794922 10 0 C10.66 0.99 11.32 1.98 12 3 C10.18959679 4.33617897 8.3766216 5.66887384 6.5625 7 C5.55316406 7.7425 4.54382813 8.485 3.50390625 9.25 C1 11 1 11 0 11 C0 7.37 0 3.74 0 0 Z " fill="#9B7BC1" transform="translate(5,35)"/>
<path d="M0 0 C0.390625 2.72265625 0.390625 2.72265625 0 6 C-2.13217789 7.87027743 -3.82577473 9.08522873 -6.25 10.4375 C-7.12978516 10.98180664 -7.12978516 10.98180664 -8.02734375 11.53710938 C-10.63240987 13.0679516 -12.36436203 14.0727908 -15.421875 13.72265625 C-15.94265625 13.48417969 -16.4634375 13.24570313 -17 13 C-13.56881122 7.92780788 -9.08473724 5.19317753 -4 2 C-1 0 -1 0 0 0 Z " fill="#CD3141" transform="translate(235,103)"/>
<path d="M0 0 C3.54611778 1.77305889 4.56681117 5.95570602 6.1875 9.4375 C6.56841797 10.22705078 6.94933594 11.01660156 7.34179688 11.83007812 C7.87450195 12.96413086 7.87450195 12.96413086 8.41796875 14.12109375 C8.90946411 15.16414673 8.90946411 15.16414673 9.41088867 16.22827148 C10 18 10 18 9 20 C7.99491199 18.21118264 6.99607264 16.41885304 6 14.625 C5.443125 13.62726563 4.88625 12.62953125 4.3125 11.6015625 C3 9 3 9 3 7 C0.93722893 7.14194764 -1.12521031 7.28872216 -3.1875 7.4375 C-4.33605469 7.51871094 -5.48460937 7.59992188 -6.66796875 7.68359375 C-9.51598171 7.95403812 -12.21210482 8.37521747 -15 9 C-13.26637241 5.53274483 -9.50993051 4.34259637 -6 3 C-2.5 2.75 -2.5 2.75 0 3 C0 2.01 0 1.02 0 0 Z " fill="#420C17" transform="translate(162,120)"/>
<path d="M0 0 C0.33 0 0.66 0 1 0 C1 8.58 1 17.16 1 26 C0.34 26 -0.32 26 -1 26 C-1.66 27.32 -2.32 28.64 -3 30 C-2.50873071 23.63440427 -2.00344253 17.30735307 -1 11 C-1.66 11 -2.32 11 -3 11 C-3.33 11.66 -3.66 12.32 -4 13 C-3.71517632 11.58194169 -3.42181856 10.16559621 -3.125 8.75 C-2.96257813 7.96109375 -2.80015625 7.1721875 -2.6328125 6.359375 C-2.00849925 4.03168856 -1.15161458 2.10968048 0 0 Z " fill="#861E38" transform="translate(49,97)"/>
<path d="M0 0 C0.95310059 0.01047363 1.90620117 0.02094727 2.88818359 0.03173828 C4.43505859 0.04140625 4.43505859 0.04140625 6.01318359 0.05126953 C7.63353516 0.07640625 7.63353516 0.07640625 9.28662109 0.10205078 C10.37458984 0.11107422 11.46255859 0.12009766 12.58349609 0.12939453 C15.27642261 0.15301669 17.96891365 0.18595522 20.66162109 0.22705078 C16.06860367 3.71140882 13.57547037 5.48988853 7.66162109 5.22705078 C8.65162109 4.23705078 9.64162109 3.24705078 10.66162109 2.22705078 C9.66582031 2.47841797 9.66582031 2.47841797 8.64990234 2.73486328 C-0.12045272 4.75780649 -0.12045272 4.75780649 -4.33837891 2.22705078 C-2.33837891 0.22705078 -2.33837891 0.22705078 0 0 Z " fill="#5F344C" transform="translate(114.33837890625,134.77294921875)"/>
<path d="M0 0 C2.29999922 -0.09557638 4.52910665 -0.02844922 6.82617188 0.12011719 C7.61894531 0.1471875 8.41171875 0.17425781 9.22851562 0.20214844 C11.17890553 0.27264446 13.12789089 0.38026219 15.07617188 0.49511719 C9.98748564 5.58380342 0.9266892 5.94265611 -5.92382812 6.49511719 C-3.14857167 0.81031768 -3.14857167 0.81031768 0 0 Z " fill="#7F6318" transform="translate(181.923828125,228.5048828125)"/>
<path d="M0 0 C7.70288993 -0.6212008 12.3723673 1.1258097 19 5 C19 5.33 19 5.66 19 6 C16.9163691 5.85848172 14.83310062 5.71162064 12.75 5.5625 C11.58984375 5.48128906 10.4296875 5.40007812 9.234375 5.31640625 C6.69022624 5.06752213 4.44046752 4.71885058 2 4 C2 3.34 2 2.68 2 2 C1.34 2 0.68 2 0 2 C0 1.34 0 0.68 0 0 Z " fill="#A98D27" transform="translate(118,229)"/>
<path d="M0 0 C0.33 0 0.66 0 1 0 C0.67 11.22 0.34 22.44 0 34 C0.66 34 1.32 34 2 34 C2.33 33.01 2.66 32.02 3 31 C4 33 4 33 3.25 35.4375 C2.05457016 37.88813118 0.95028469 39.16223173 -1 41 C-1.02477487 35.96460323 -1.04289549 30.92924219 -1.05493164 25.89379883 C-1.05995099 24.18187848 -1.06676785 22.46996239 -1.07543945 20.75805664 C-1.08761021 18.29312078 -1.09325238 15.82824175 -1.09765625 13.36328125 C-1.10281754 12.60163162 -1.10797882 11.83998199 -1.11329651 11.05525208 C-1.11369638 7.24150175 -0.92590961 3.70684229 0 0 Z " fill="#DD4D6F" transform="translate(6,113)"/>
<path d="M0 0 C3.24655503 3.97475428 6.27028327 8.07493179 9.25 12.25 C9.70890625 12.88679687 10.1678125 13.52359375 10.640625 14.1796875 C14 18.87881324 14 18.87881324 14 20 C12.35 20 10.7 20 9 20 C7.48987869 17.23456804 5.99369852 14.46183193 4.5 11.6875 C4.07074219 10.90181641 3.64148438 10.11613281 3.19921875 9.30664062 C2.79316406 8.54931641 2.38710937 7.79199219 1.96875 7.01171875 C1.59169922 6.31522217 1.21464844 5.61872559 0.82617188 4.90112305 C0 3 0 3 0 0 Z " fill="#C23044" transform="translate(164,121)"/>
<path d="M0 0 C1.99897128 0.33944795 3.99875639 0.67421616 6 1 C6 1.33 6 1.66 6 2 C5.38511719 2.04898437 4.77023438 2.09796875 4.13671875 2.1484375 C3.32847656 2.22320313 2.52023438 2.29796875 1.6875 2.375 C0.48673828 2.47941406 0.48673828 2.47941406 -0.73828125 2.5859375 C-3.27224441 2.89564426 -3.27224441 2.89564426 -6 5 C-8.48046875 5.1953125 -8.48046875 5.1953125 -11.1875 5.125 C-12.08855469 5.10695313 -12.98960938 5.08890625 -13.91796875 5.0703125 C-14.60503906 5.04710937 -15.29210937 5.02390625 -16 5 C-11.00746445 1.11084758 -6.3923106 -1.9668648 0 0 Z " fill="#D2AABD" transform="translate(21,29)"/>
<path d="M0 0 C3.3 0 6.6 0 10 0 C10 1.65 10 3.3 10 5 C6.37 5 2.74 5 -1 5 C-0.67 3.35 -0.34 1.7 0 0 Z " fill="#9395E3" transform="translate(55,136)"/>
<path d="M0 0 C0.33 1.32 0.66 2.64 1 4 C-1.59836136 5.36645701 -4.20265556 6.71830669 -6.8125 8.0625 C-7.55048828 8.45244141 -8.28847656 8.84238281 -9.04882812 9.24414062 C-9.76103516 9.60830078 -10.47324219 9.97246094 -11.20703125 10.34765625 C-11.8616333 10.68804932 -12.51623535 11.02844238 -13.19067383 11.37915039 C-15 12 -15 12 -18 11 C-12.04726742 7.25198319 -6.04169345 3.60273114 0 0 Z " fill="#892042" transform="translate(234,58)"/>
<path d="M0 0 C1.32 0.33 2.64 0.66 4 1 C4.66 3.31 5.32 5.62 6 8 C5.01 8 4.02 8 3 8 C3 6.68 3 5.36 3 4 C-0.63 4 -4.26 4 -8 4 C-7.67 3.01 -7.34 2.02 -7 1 C-4.69 1.33 -2.38 1.66 0 2 C0 1.34 0 0.68 0 0 Z " fill="#A992CB" transform="translate(43,19)"/>
<path d="M0 0 C2.97 0.495 2.97 0.495 6 1 C5.67 3.64 5.34 6.28 5 9 C4.01 9.33 3.02 9.66 2 10 C1.34 6.7 0.68 3.4 0 0 Z " fill="#DB9785" transform="translate(195,131)"/>
<path d="M0 0 C1.9375 0.6875 1.9375 0.6875 4 2 C4.8125 4.5625 4.8125 4.5625 5 7 C4 8 4 8 0.9375 8.0625 C-0.031875 8.041875 -1.00125 8.02125 -2 8 C-1.125 1.125 -1.125 1.125 0 0 Z " fill="#FEE1C2" transform="translate(42,54)"/>
<path d="M0 0 C3.3 0 6.6 0 10 0 C10 1.32 10 2.64 10 4 C11.32 4.33 12.64 4.66 14 5 C13.67 5.99 13.34 6.98 13 8 C12.34 7.67 11.68 7.34 11 7 C11 6.34 11 5.68 11 5 C9.948125 4.8453125 9.948125 4.8453125 8.875 4.6875 C5.60862353 3.90640997 2.9528148 2.57941257 0 1 C0 0.67 0 0.34 0 0 Z " fill="#C9C3E3" transform="translate(36,23)"/>
<path d="M0 0 C0.99 0.33 1.98 0.66 3 1 C3 1.66 3 2.32 3 3 C3.99 3 4.98 3 6 3 C5.67 3.99 5.34 4.98 5 6 C3.15234375 6.73046875 3.15234375 6.73046875 0.9375 7.1875 C0.20402344 7.34605469 -0.52945312 7.50460938 -1.28515625 7.66796875 C-2.13400391 7.83232422 -2.13400391 7.83232422 -3 8 C-1.125 1.125 -1.125 1.125 0 0 Z " fill="#E0D6E7" transform="translate(19,136)"/>
<path d="M0 0 C0.66 0 1.32 0 2 0 C3.34425253 3.41247084 4.67347169 6.83060439 6 10.25 C6.3815625 11.21808594 6.763125 12.18617187 7.15625 13.18359375 C7.5171875 14.11816406 7.878125 15.05273438 8.25 16.015625 C8.58515625 16.87446289 8.9203125 17.73330078 9.265625 18.61816406 C10 21 10 21 10 25 C7.71505696 22.71505696 7.14044328 21.05318077 6.0546875 18.02734375 C5.70019531 17.04572266 5.34570312 16.06410156 4.98046875 15.05273438 C4.61566406 14.02470703 4.25085937 12.99667969 3.875 11.9375 C3.50246094 10.90560547 3.12992188 9.87371094 2.74609375 8.81054688 C0 1.16071429 0 1.16071429 0 0 Z " fill="#5D0B1B" transform="translate(41,5)"/>
<path d="M0 0 C2.31 0 4.62 0 7 0 C7.33 1.98 7.66 3.96 8 6 C6.02 6 4.04 6 2 6 C1.34 4.02 0.68 2.04 0 0 Z " fill="#8E4124" transform="translate(81,229)"/>
<path d="M0 0 C2.12046792 3.53411321 2.53199289 6.94393835 3 11 C1.02 11 -0.96 11 -3 11 C-2.69078116 9.54096742 -2.37751201 8.08279278 -2.0625 6.625 C-1.88847656 5.81289062 -1.71445313 5.00078125 -1.53515625 4.1640625 C-1 2 -1 2 0 0 Z " fill="#717094" transform="translate(178,174)"/>
<path d="M0 0 C0.66 0 1.32 0 2 0 C2 0.66 2 1.32 2 2 C7.28199593 3.19988045 7.28199593 3.19988045 12 1 C12 2.32 12 3.64 12 5 C8.04 5 4.08 5 0 5 C0 3.35 0 1.7 0 0 Z " fill="#B1340E" transform="translate(70,136)"/>
<path d="M0 0 C0.33 0.99 0.66 1.98 1 3 C-0.52505728 4.52505728 -2.06864111 4.26359031 -4.1875 4.4375 C-8.02775269 4.81784452 -11.37967498 5.6075673 -15 7 C-13.2707616 3.5415232 -9.46315257 2.43194105 -6 1 C-2.5 0.25 -2.5 0.25 0 0 Z " fill="#872B31" transform="translate(162,122)"/>
<path d="M0 0 C0.66 0 1.32 0 2 0 C3.86113056 3.14065783 4.27966763 5.36432086 4 9 C3.67 9.99 3.34 10.98 3 12 C3 12.99 3 13.98 3 15 C1.68 14.67 0.36 14.34 -1 14 C-1 12.68 -1 11.36 -1 10 C-0.34 9.67 0.32 9.34 1 9 C1.07427838 5.65747276 1.06546953 3.1964086 0 0 Z " fill="#B693CC" transform="translate(32,5)"/>
<path d="M0 0 C2.31294553 3.46941829 2.57778029 5.76650915 3.125 9.875 C3.29257813 11.08929688 3.46015625 12.30359375 3.6328125 13.5546875 C3.93735312 16.41218568 4.07633294 19.13206247 4 22 C1.98434953 18.47921315 1.17009326 14.94911236 0.3125 11 C0.04050781 9.783125 -0.23148438 8.56625 -0.51171875 7.3125 C-0.94757352 4.35566123 -1.02405328 2.74913631 0 0 Z " fill="#490E24" transform="translate(189,94)"/>
<path d="M0 0 C-0.66 1.32 -1.32 2.64 -2 4 C-2.33 3.34 -2.66 2.68 -3 2 C-10.92 3.485 -10.92 3.485 -19 5 C-17.69453228 2.38906455 -16.72009785 2.31003364 -14 1.375 C-9.1842075 -0.1632708 -5.02821785 -0.23943895 0 0 Z " fill="#680C1C" transform="translate(28,64)"/>
<path d="M0 0 C4.59913007 0.7884223 8.63430605 1.63430605 12 5 C12.75 7 12.75 7 13 9 C12.34 9.66 11.68 10.32 11 11 C10.34 10.67 9.68 10.34 9 10 C9 8.02 9 6.04 9 4 C7.88625 3.8453125 7.88625 3.8453125 6.75 3.6875 C3.82985982 2.95746496 2.26812446 1.93210602 0 0 Z " fill="#D9E0F2" transform="translate(37,25)"/>
<path d="M0 0 C3 1 3 1 4.6875 3.9375 C6 7 6 7 6 9 C4.68 9.33 3.36 9.66 2 10 C0.68373308 6.38026598 0 3.90432869 0 0 Z " fill="#E94E3A" transform="translate(60,5)"/>
<path d="M0 0 C0.33 0.66 0.66 1.32 1 2 C1.99 1.67 2.98 1.34 4 1 C3.67 2.65 3.34 4.3 3 6 C2.01 6.33 1.02 6.66 0 7 C-1.22445284 8.62948064 -1.22445284 8.62948064 -2.1875 10.5625 C-2.785625 11.696875 -3.38375 12.83125 -4 14 C-4.33 13.34 -4.66 12.68 -5 12 C-4.26821134 9.92803369 -3.44100997 7.8891448 -2.5625 5.875 C-2.08941406 4.77929688 -1.61632812 3.68359375 -1.12890625 2.5546875 C-0.75636719 1.71164063 -0.38382813 0.86859375 0 0 Z " fill="#C23142" transform="translate(20,74)"/>
<path d="M0 0 C2.31 0 4.62 0 7 0 C5.25 3 5.25 3 3 6 C1.68 6 0.36 6 -1 6 C-0.67 4.02 -0.34 2.04 0 0 Z " fill="#675E1F" transform="translate(41,229)"/>
<path d="M0 0 C2.64 1.32 5.28 2.64 8 4 C7.01 4.66 6.02 5.32 5 6 C2.73828125 5.5390625 2.73828125 5.5390625 0.3125 4.625 C-0.49574219 4.32851562 -1.30398437 4.03203125 -2.13671875 3.7265625 C-2.75160156 3.48679688 -3.36648437 3.24703125 -4 3 C-2.68 2.01 -1.36 1.02 0 0 Z " fill="#E5C2A9" transform="translate(143,131)"/>
<path d="M0 0 C0.33 0 0.66 0 1 0 C1.19335938 0.59167969 1.38671875 1.18335938 1.5859375 1.79296875 C2.94414719 5.9146645 4.32050585 9.9950524 6 14 C4.68 14 3.36 14 2 14 C0.02905192 9.07262981 -0.1799928 5.21979128 0 0 Z " fill="#DB3C47" transform="translate(184,127)"/>
<path d="M0 0 C2.64 0.33 5.28 0.66 8 1 C3.375 5.875 3.375 5.875 0 7 C0 4.69 0 2.38 0 0 Z " fill="#816FC6" transform="translate(5,39)"/>
<path d="M0 0 C1.98 0 3.96 0 6 0 C6.33 2.97 6.66 5.94 7 9 C4.03595495 6.19195732 1.55500981 3.81684226 0 0 Z " fill="#886AC7" transform="translate(53,5)"/>
<path d="M0 0 C2.6015625 -0.29296875 2.6015625 -0.29296875 5.625 -0.1875 C7.12933594 -0.14689453 7.12933594 -0.14689453 8.6640625 -0.10546875 C9.43492187 -0.07066406 10.20578125 -0.03585938 11 0 C8.73437327 2.26562673 7.15839295 2.94462749 3.95703125 3.09765625 C3.24933594 3.08605469 2.54164063 3.07445312 1.8125 3.0625 C-0.0746875 3.0315625 -0.0746875 3.0315625 -2 3 C-1.34 2.01 -0.68 1.02 0 0 Z " fill="#A68026" transform="translate(186,229)"/>
<path d="M0 0 C4.95 0 9.9 0 15 0 C12.56513393 2.43486607 11.42574894 2.44209813 8.0625 2.8125 C7.18722656 2.92207031 6.31195313 3.03164062 5.41015625 3.14453125 C3 3 3 3 0 0 Z " fill="#A02F36" transform="translate(110,136)"/>
<path d="M0 0 C0 3.6987636 -0.84352062 4.35773852 -3.25 7.0625 C-4.15492188 8.10083984 -4.15492188 8.10083984 -5.078125 9.16015625 C-6.97018869 10.97146113 -8.60605599 11.9778071 -11 13 C-7.61227103 8.30840284 -4.21814817 3.9700218 0 0 Z " fill="#C73A43" transform="translate(168,20)"/>
<path d="M0 0 C0.8353125 0.556875 0.8353125 0.556875 1.6875 1.125 C1.3575 1.785 1.0275 2.445 0.6875 3.125 C-1.5625 3.6875 -1.5625 3.6875 -4.3125 4.125 C-5.240625 4.310625 -6.16875 4.49625 -7.125 4.6875 C-7.846875 4.831875 -8.56875 4.97625 -9.3125 5.125 C-8.27806141 2.30380386 -7.58029294 1.28003802 -4.9375 -0.25 C-2.3125 -0.875 -2.3125 -0.875 0 0 Z " fill="#EFDFE4" transform="translate(19.3125,25.875)"/>
<path d="M0 0 C1.32 0 2.64 0 4 0 C3.85866501 1.77119803 3.71176792 3.54195287 3.5625 5.3125 C3.48128906 6.29863281 3.40007813 7.28476563 3.31640625 8.30078125 C3 11 3 11 2 14 C2.99 14.33 3.98 14.66 5 15 C3.68 15 2.36 15 1 15 C1.01160156 14.08476562 1.02320312 13.16953125 1.03515625 12.2265625 C1.04417969 11.03804687 1.05320312 9.84953125 1.0625 8.625 C1.07410156 7.44164062 1.08570312 6.25828125 1.09765625 5.0390625 C1.21466593 2.08078479 1.21466593 2.08078479 0 0 Z " fill="#DFD2E5" transform="translate(27,7)"/>
<path d="M0 0 C0 3.21534057 -0.26476072 4.35582586 -2 7 C-4.86679519 8.96149145 -7.89645703 10.4548318 -11 12 C-7.49102731 7.81576108 -3.91939465 3.80411834 0 0 Z " fill="#D13648" transform="translate(27,101)"/>
<path d="M0 0 C1.32 0.33 2.64 0.66 4 1 C1.36 4.3 -1.28 7.6 -4 11 C-4.33 10.34 -4.66 9.68 -5 9 C-4.00390625 6.8359375 -4.00390625 6.8359375 -2.5625 4.375 C-2.08941406 3.55773437 -1.61632812 2.74046875 -1.12890625 1.8984375 C-0.75636719 1.27195312 -0.38382813 0.64546875 0 0 Z " fill="#C63648" transform="translate(163,5)"/>
<path d="M0 0 C2.31 0 4.62 0 7 0 C7.33 1.65 7.66 3.3 8 5 C5.03 4.505 5.03 4.505 2 4 C2 3.34 2 2.68 2 2 C1.34 2 0.68 2 0 2 C0 1.34 0 0.68 0 0 Z " fill="#9F7D2B" transform="translate(118,229)"/>
<path d="M0 0 C0.66 1.32 1.32 2.64 2 4 C-3.625 7 -3.625 7 -7 7 C-5.66667905 3.00003714 -3.5042173 2.16217663 0 0 Z " fill="#AD2842" transform="translate(218,114)"/>
<path d="M0 0 C0.99 0.66 1.98 1.32 3 2 C-0.3 4.64 -3.6 7.28 -7 10 C-7.66 9.67 -8.32 9.34 -9 9 C-6.03 6.03 -3.06 3.06 0 0 Z " fill="#8F213F" transform="translate(214,8)"/>
<path d="M0 0 C0 0.99 0 1.98 0 3 C-3.96 3 -7.92 3 -12 3 C-7.59976085 0.79988042 -4.84260226 -0.13088114 0 0 Z " fill="#F2EDE5" transform="translate(193,232)"/>
<path d="M0 0 C1.2065625 0.0309375 1.2065625 0.0309375 2.4375 0.0625 C-0.88557692 4.8625 -0.88557692 4.8625 -4.3125 5.875 C-5.055 5.936875 -5.7975 5.99875 -6.5625 6.0625 C-3.03077411 0.07392132 -3.03077411 0.07392132 0 0 Z " fill="#958033" transform="translate(50.5625,228.9375)"/>
<path d="M0 0 C1.98 0 3.96 0 6 0 C5.34 1.65 4.68 3.3 4 5 C2.68 5 1.36 5 0 5 C0 3.35 0 1.7 0 0 Z " fill="#CE4464" transform="translate(48,136)"/>
<path d="M0 0 C0.66 0.99 1.32 1.98 2 3 C-0.97 5.475 -0.97 5.475 -4 8 C-4.66 7.67 -5.32 7.34 -6 7 C-4.60667426 3.63279613 -3.0210714 2.0140476 0 0 Z " fill="#AE3046" transform="translate(163,50)"/>
<path d="M0 0 C-3.08809695 1.76462683 -4.23312136 2 -8 2 C-8 2.99 -8 3.98 -8 5 C-10.31 5 -12.62 5 -15 5 C-10.87384475 1.53402959 -5.43913747 -2.39322049 0 0 Z " fill="#DBC2D4" transform="translate(20,29)"/>
<path d="M0 0 C7.50769231 -0.36923077 7.50769231 -0.36923077 10 1.5 C10.495 2.2425 10.495 2.2425 11 3 C10.67 3.99 10.34 4.98 10 6 C9.34 4.68 8.68 3.36 8 2 C5.69 2 3.38 2 1 2 C0.67 1.34 0.34 0.68 0 0 Z " fill="#A65C37" transform="translate(224,144)"/>
<path d="M0 0 C3.3 0 6.6 0 10 0 C8.515 1.98 8.515 1.98 7 4 C4.69 3.34 2.38 2.68 0 2 C0 1.34 0 0.68 0 0 Z " fill="#5F211A" transform="translate(72,136)"/>
<path d="M0 0 C3.96 1.98 3.96 1.98 8 4 C8 4.33 8 4.66 8 5 C5.69 5 3.38 5 1 5 C0.67 3.35 0.34 1.7 0 0 Z " fill="#AA8758" transform="translate(95,230)"/>
<path d="M0 0 C0.66 0.33 1.32 0.66 2 1 C-0.31 3.64 -2.62 6.28 -5 9 C-5.66 8.01 -6.32 7.02 -7 6 C-4.69 4.02 -2.38 2.04 0 0 Z " fill="#D83840" transform="translate(215,10)"/>
<path d="M0 0 C0.66 0 1.32 0 2 0 C2 0.66 2 1.32 2 2 C3.45833358 3.62514468 3.45833358 3.62514468 5 5 C2.36 5 -0.28 5 -3 5 C-1.625 2.5 -1.625 2.5 0 0 Z " fill="#C8AED5" transform="translate(32,136)"/>
<path d="M0 0 C1.65 0 3.3 0 5 0 C5 1.98 5 3.96 5 6 C4.34 6 3.68 6 3 6 C0 2.53846154 0 2.53846154 0 0 Z " fill="#FD8B59" transform="translate(44,53)"/>
<path d="M0 0 C2.12046792 3.53411321 2.53199289 6.94393835 3 11 C2.01 11.495 2.01 11.495 1 12 C1 11.34 1 10.68 1 10 C0.34 10 -0.32 10 -1 10 C-0.67 9.01 -0.34 8.02 0 7 C0.03954234 4.66700175 0.04401732 2.33291811 0 0 Z " fill="#5B1C31" transform="translate(59,5)"/>
<path d="M0 0 C2.3125 -0.25 2.3125 -0.25 5 0 C6.875 1.8125 6.875 1.8125 8 4 C7.67 4.99 7.34 5.98 7 7 C5.83040013 6.02433888 4.66438823 5.044375 3.5 4.0625 C2.8503125 3.51722656 2.200625 2.97195312 1.53125 2.41015625 C1.0259375 1.94480469 0.520625 1.47945312 0 1 C0 0.67 0 0.34 0 0 Z " fill="#F7E9C2" transform="translate(227,146)"/>
<path d="M0 0 C0.33 0.66 0.66 1.32 1 2 C2.32 1.67 3.64 1.34 5 1 C4.34 2.98 3.68 4.96 3 7 C1.68 6.01 0.36 5.02 -1 4 C-0.67 2.68 -0.34 1.36 0 0 Z " fill="#B83633" transform="translate(12,139)"/>
<path d="M0 0 C-2.55068845 2.35448165 -3.71017358 2.98327924 -7.25 3.1875 C-8.1575 3.125625 -9.065 3.06375 -10 3 C-4.375 -1.3125 -4.375 -1.3125 0 0 Z " fill="#932529" transform="translate(132,137)"/>
<path d="M0 0 C2.97 0.33 5.94 0.66 9 1 C8.01 2.32 7.02 3.64 6 5 C3.98079663 3.69593116 1.98075027 2.36176581 0 1 C0 0.67 0 0.34 0 0 Z " fill="#C6C8ED" transform="translate(21,228)"/>
<path d="M0 0 C0.33 0.66 0.66 1.32 1 2 C-0.7857061 5.75938126 -2.25286585 7.32426299 -6 9 C-5.18914873 7.68648079 -4.37626942 6.37421332 -3.5625 5.0625 C-3.11003906 4.33160156 -2.65757812 3.60070312 -2.19140625 2.84765625 C-1 1 -1 1 0 0 Z " fill="#CC3A43" transform="translate(175,11)"/>
<path d="M0 0 C1.62418745 -0.08090971 3.24951745 -0.13914995 4.875 -0.1875 C5.77992187 -0.22230469 6.68484375 -0.25710937 7.6171875 -0.29296875 C8.79667969 -0.14794922 8.79667969 -0.14794922 10 0 C10.66 0.99 11.32 1.98 12 3 C11.319375 2.855625 10.63875 2.71125 9.9375 2.5625 C6.63726918 1.93054091 3.32855574 1.45686059 0 1 C0 0.67 0 0.34 0 0 Z " fill="#AB85BD" transform="translate(5,35)"/>
<path d="M0 0 C2 3 2 3 2 6 C0.68 5.67 -0.64 5.34 -2 5 C-2 3.68 -2 2.36 -2 1 C-1.34 0.67 -0.68 0.34 0 0 Z " fill="#BD9ECD" transform="translate(33,14)"/>
</svg>
